<svg width="344" height="237" viewBox="0 0 344 237" fill="none" xmlns="http://www.w3.org/2000/svg">
<rect x="0.527323" width="30.922" height="26.6605" rx="9.43774" transform="matrix(0.866044 -0.499968 0.866044 0.499968 18.0706 81.1792)" stroke="#E0E4F3" stroke-width="0.608887"/>
<rect x="0.527323" width="83.3123" height="71.9701" rx="20.3977" transform="matrix(0.866044 -0.499968 0.866044 0.499968 212.543 58.2085)" stroke="#E0E4F3" stroke-width="0.608887"/>
<g filter="url(#filter0_d)">
<rect width="154.256" height="133.407" rx="36.5332" transform="matrix(0.866044 -0.499967 0.866044 0.499967 30.7891 89.3008)" fill="url(#paint0_linear)"/>
</g>
<g filter="url(#filter1_d)">
<rect width="154.256" height="133.407" rx="36.5332" transform="matrix(0.866044 -0.499967 0.866044 0.499967 30.7891 77.123)" fill="url(#paint1_linear)"/>
</g>
<circle r="33.8454" transform="matrix(0.866044 -0.499967 0.866044 0.499967 153.346 74.0298)" fill="#DCE3FF"/>
<path d="M162.054 62.7915L141.743 67.4271C141.4 67.5055 141.128 67.6625 140.992 67.8608L132.962 79.5862C132.533 80.2127 133.61 80.8348 134.696 80.587L142.004 78.9189L147.902 82.3239C151.081 84.1587 157.72 83.2005 163.017 80.1424C168.315 77.0843 169.974 73.2514 166.796 71.4166L160.898 68.0116L161.433 67.2299L171.519 73.0526C172.041 73.3538 172.887 73.3538 173.409 73.0526C173.93 72.7515 173.93 72.2631 173.409 71.9619L162.504 65.6665L163.787 63.7924C164.216 63.1658 163.139 62.5438 162.054 62.7915ZM143.264 68.7387L160.169 64.8804L159.639 65.6544L147.554 71.0805C146.972 71.3422 146.867 71.8266 147.32 72.1628C147.773 72.499 148.612 72.5596 149.195 72.2981L157.706 68.4763L153.486 74.6398C143.935 76.8196 145.969 76.3553 136.58 78.4981L143.264 68.7387ZM164.907 72.5073C165.797 73.0212 165.983 73.9719 165.416 75.1158C164.068 77.8401 159.043 80.7468 154.31 81.5274C152.329 81.8543 150.682 81.747 149.792 81.2332L144.712 78.3008L155.006 75.9514C155.349 75.8731 155.621 75.7164 155.758 75.5177L159.827 69.575L164.907 72.5073Z" fill="#4C68EF"/>
<defs>
<filter id="filter0_d" x="0.611328" y="16.7886" width="309.483" height="219.845" filterUnits="userSpaceOnUse" color-interpolation-filters="sRGB">
<feFlood flood-opacity="0" result="BackgroundImageFix"/>
<feColorMatrix in="SourceAlpha" type="matrix" values="0 0 0 0 0 0 0 0 0 0 0 0 0 0 0 0 0 0 127 0"/>
<feOffset dy="42.6221"/>
<feGaussianBlur stdDeviation="24.3555"/>
<feColorMatrix type="matrix" values="0 0 0 0 0.204793 0 0 0 0 0.269156 0 0 0 0 0.526608 0 0 0 0.05 0"/>
<feBlend mode="normal" in2="BackgroundImageFix" result="effect1_dropShadow"/>
<feBlend mode="normal" in="SourceGraphic" in2="effect1_dropShadow" result="shape"/>
</filter>
<filter id="filter1_d" x="0.611328" y="4.61084" width="309.483" height="219.845" filterUnits="userSpaceOnUse" color-interpolation-filters="sRGB">
<feFlood flood-opacity="0" result="BackgroundImageFix"/>
<feColorMatrix in="SourceAlpha" type="matrix" values="0 0 0 0 0 0 0 0 0 0 0 0 0 0 0 0 0 0 127 0"/>
<feOffset dy="42.6221"/>
<feGaussianBlur stdDeviation="24.3555"/>
<feColorMatrix type="matrix" values="0 0 0 0 0.204793 0 0 0 0 0.269156 0 0 0 0 0.526608 0 0 0 0.05 0"/>
<feBlend mode="normal" in2="BackgroundImageFix" result="effect1_dropShadow"/>
<feBlend mode="normal" in="SourceGraphic" in2="effect1_dropShadow" result="shape"/>
</filter>
<linearGradient id="paint0_linear" x1="77.1278" y1="133.407" x2="77.1278" y2="0" gradientUnits="userSpaceOnUse">
<stop stop-color="white"/>
<stop offset="1" stop-color="#F0F2FF"/>
</linearGradient>
<linearGradient id="paint1_linear" x1="77.1278" y1="133.407" x2="77.1278" y2="0" gradientUnits="userSpaceOnUse">
<stop offset="0.520833" stop-color="white"/>
<stop offset="1" stop-color="#F7F8FF"/>
</linearGradient>
</defs>
</svg>
