<svg width="571" height="389" viewBox="0 0 571 389" fill="none" xmlns="http://www.w3.org/2000/svg">
<rect x="0.866043" width="50.7845" height="43.7856" rx="15.5" transform="matrix(0.866043 -0.49997 0.866043 0.49997 29.116 133.324)" stroke="#E0E4F3"/>
<rect x="0.866044" width="136.827" height="118.199" rx="33.5" transform="matrix(0.866044 -0.499967 0.866044 0.499967 348.507 95.598)" stroke="#E0E4F3"/>
<g filter="url(#filter0_d)">
<rect width="253.34" height="219.101" rx="60" transform="matrix(0.866044 -0.499967 0.866044 0.499967 50 146.662)" fill="url(#paint0_linear)"/>
</g>
<g filter="url(#filter1_d)">
<rect width="253.34" height="219.101" rx="60" transform="matrix(0.866044 -0.499967 0.866044 0.499967 50 126.662)" fill="url(#paint1_linear)"/>
</g>
<circle r="55.5857" transform="matrix(0.866044 -0.499967 0.866044 0.499967 251.279 121.582)" fill="#DCE3FF"/>
<g clip-path="url(#clip0)">
<path d="M280.389 117.641C280.415 116.472 279.659 115.298 278.118 114.408C275.086 112.658 270.154 112.658 267.122 114.408C264.091 116.158 264.091 119.006 267.122 120.756C268.664 121.646 270.697 122.082 272.722 122.067C272.18 123.13 272.112 124.258 272.52 125.337C270.65 125.101 268.698 125.14 266.856 125.453C266.882 124.284 266.126 123.111 264.585 122.221C261.553 120.471 256.621 120.471 253.589 122.221C250.558 123.971 250.558 126.818 253.589 128.568C255.131 129.458 257.164 129.895 259.189 129.88C258.647 130.943 258.58 132.07 258.987 133.149C257.118 132.914 255.165 132.953 253.323 133.266C253.349 132.097 252.593 130.923 251.052 130.033C248.021 128.283 243.088 128.283 240.057 130.033C237.025 131.783 237.025 134.631 240.057 136.381C241.598 137.271 243.631 137.707 245.656 137.692C244.519 139.923 245.471 142.437 248.515 144.193L250.206 145.17C250.907 145.574 252.043 145.574 252.744 145.17L293.342 121.732C294.043 121.328 294.043 120.672 293.342 120.268L291.651 119.291C288.607 117.534 284.253 116.984 280.389 117.641ZM269.66 119.291C268.027 118.349 268.027 116.815 269.66 115.873C271.292 114.931 273.948 114.931 275.58 115.873C277.213 116.815 277.213 118.349 275.58 119.291C273.948 120.233 271.292 120.233 269.66 119.291ZM256.127 123.686C257.759 122.743 260.415 122.743 262.047 123.686C263.68 124.628 263.68 126.161 262.047 127.104C260.415 128.046 257.759 128.046 256.127 127.104C254.495 126.161 254.495 124.628 256.127 123.686ZM242.594 131.498C244.226 130.556 246.882 130.556 248.515 131.498C250.147 132.44 250.147 133.974 248.515 134.916C246.882 135.858 244.226 135.858 242.594 134.916C240.962 133.974 240.962 132.44 242.594 131.498ZM251.052 142.729C248.021 140.979 248.021 138.131 251.052 136.381C254.084 134.631 259.016 134.631 262.048 136.381L262.47 136.625L251.475 142.973L251.052 142.729ZM264.585 134.916C261.554 133.166 261.554 130.318 264.585 128.568C267.616 126.818 272.549 126.818 275.58 128.568L276.003 128.813L265.008 135.16L264.585 134.916ZM289.536 121L278.541 127.348L278.118 127.104C275.086 125.354 275.086 122.506 278.118 120.756C281.149 119.006 286.082 119.006 289.113 120.756L289.536 121Z" fill="#4C68EF"/>
<path d="M228.722 131.498L250.713 118.803C251.414 118.398 251.414 117.742 250.713 117.338L233.797 107.572C233.096 107.168 231.96 107.168 231.26 107.572L209.269 120.268C208.568 120.672 208.568 121.328 209.269 121.732L226.185 131.498C226.885 131.903 228.021 131.903 228.722 131.498ZM213.075 121L232.528 109.77L246.907 118.07L227.453 129.301L213.075 121Z" fill="#4C68EF"/>
<path d="M256.536 103.871C256.562 102.702 255.806 101.529 254.265 100.639C251.233 98.8886 246.301 98.8886 243.269 100.639C240.238 102.389 240.238 105.236 243.269 106.986C244.811 107.876 246.844 108.313 248.869 108.297C247.731 110.528 248.684 113.042 251.728 114.799L253.419 115.775C254.12 116.18 255.256 116.18 255.957 115.775L269.489 107.963C270.19 107.558 270.19 106.903 269.489 106.498L267.798 105.521C264.754 103.765 260.4 103.215 256.536 103.871ZM245.807 105.521C244.175 104.579 244.175 103.046 245.807 102.104C247.439 101.161 250.095 101.161 251.728 102.104C253.36 103.046 253.36 104.579 251.728 105.521C250.095 106.464 247.439 106.464 245.807 105.521ZM265.683 107.23L254.688 113.578L254.265 113.334C251.233 111.584 251.233 108.736 254.265 106.986C257.296 105.236 262.229 105.236 265.26 106.986L265.683 107.23Z" fill="#4C68EF"/>
<path d="M231.258 113.432L227.875 115.385C227.175 115.789 227.175 116.445 227.875 116.85C228.576 117.254 229.712 117.254 230.413 116.85L230.733 116.665V119.964L227.452 119.964C226.461 119.964 225.658 120.428 225.658 121L225.658 124.906C225.658 125.478 226.461 125.942 227.452 125.942C227.948 125.942 228.396 125.826 228.721 125.639C229.046 125.451 229.247 125.192 229.246 124.906L229.246 122.036L232.527 122.036C233.518 122.036 234.321 121.572 234.321 121L234.321 116.665L234.642 116.85C235.342 117.254 236.478 117.254 237.179 116.85C237.88 116.445 237.88 115.789 237.179 115.385L233.796 113.432C233.095 113.027 231.959 113.027 231.258 113.432Z" fill="#4C68EF"/>
</g>
<defs>
<filter id="filter0_d" x="0.439453" y="27.5728" width="508.277" height="361.06" filterUnits="userSpaceOnUse" color-interpolation-filters="sRGB">
<feFlood flood-opacity="0" result="BackgroundImageFix"/>
<feColorMatrix in="SourceAlpha" type="matrix" values="0 0 0 0 0 0 0 0 0 0 0 0 0 0 0 0 0 0 127 0"/>
<feOffset dy="70"/>
<feGaussianBlur stdDeviation="40"/>
<feColorMatrix type="matrix" values="0 0 0 0 0.204793 0 0 0 0 0.269156 0 0 0 0 0.526608 0 0 0 0.05 0"/>
<feBlend mode="normal" in2="BackgroundImageFix" result="effect1_dropShadow"/>
<feBlend mode="normal" in="SourceGraphic" in2="effect1_dropShadow" result="shape"/>
</filter>
<filter id="filter1_d" x="0.439453" y="7.57275" width="508.277" height="361.06" filterUnits="userSpaceOnUse" color-interpolation-filters="sRGB">
<feFlood flood-opacity="0" result="BackgroundImageFix"/>
<feColorMatrix in="SourceAlpha" type="matrix" values="0 0 0 0 0 0 0 0 0 0 0 0 0 0 0 0 0 0 127 0"/>
<feOffset dy="70"/>
<feGaussianBlur stdDeviation="40"/>
<feColorMatrix type="matrix" values="0 0 0 0 0.204793 0 0 0 0 0.269156 0 0 0 0 0.526608 0 0 0 0.05 0"/>
<feBlend mode="normal" in2="BackgroundImageFix" result="effect1_dropShadow"/>
<feBlend mode="normal" in="SourceGraphic" in2="effect1_dropShadow" result="shape"/>
</filter>
<linearGradient id="paint0_linear" x1="126.67" y1="219.101" x2="126.67" y2="0" gradientUnits="userSpaceOnUse">
<stop stop-color="white"/>
<stop offset="1" stop-color="#F0F2FF"/>
</linearGradient>
<linearGradient id="paint1_linear" x1="126.67" y1="219.101" x2="126.67" y2="0" gradientUnits="userSpaceOnUse">
<stop offset="0.520833" stop-color="white"/>
<stop offset="1" stop-color="#F7F8FF"/>
</linearGradient>
<clipPath id="clip0">
<rect width="50.0033" height="50.0033" fill="white" transform="matrix(0.866044 -0.499967 0.866044 0.499967 208 121)"/>
</clipPath>
</defs>
</svg>
