<svg width="349" height="237" viewBox="0 0 349 237" fill="none" xmlns="http://www.w3.org/2000/svg">
<rect x="0.527323" width="30.922" height="26.6605" rx="9.43775" transform="matrix(0.866043 -0.49997 0.866043 0.49997 18.0706 81.1784)" stroke="#E0E4F3" stroke-width="0.608887"/>
<rect x="0.527323" width="83.3123" height="71.9701" rx="20.3977" transform="matrix(0.866044 -0.499967 0.866044 0.499967 212.543 58.2077)" stroke="#E0E4F3" stroke-width="0.608887"/>
<g filter="url(#filter0_d)">
<rect width="154.256" height="133.408" rx="36.5332" transform="matrix(0.866044 -0.499967 0.866044 0.499967 30.7891 89.3008)" fill="url(#paint0_linear)"/>
</g>
<g filter="url(#filter1_d)">
<rect width="154.256" height="133.408" rx="36.5332" transform="matrix(0.866044 -0.499967 0.866044 0.499967 30.7891 77.123)" fill="url(#paint1_linear)"/>
</g>
<circle r="33.8454" transform="matrix(0.866044 -0.499967 0.866044 0.499967 153.344 74.0298)" fill="#DCE3FF"/>
<g clip-path="url(#clip0)">
<path d="M171.068 71.6302C171.083 70.9185 170.623 70.2039 169.685 69.662C167.839 68.5964 164.835 68.5964 162.99 69.662C161.144 70.7276 161.144 72.4614 162.99 73.527C163.928 74.0689 165.166 74.3345 166.399 74.3253C166.069 74.9727 166.028 75.6591 166.276 76.3161C165.138 76.1729 163.949 76.1966 162.827 76.3872C162.843 75.6754 162.383 74.9608 161.445 74.4189C159.599 73.3533 156.595 73.3533 154.75 74.4189C152.904 75.4845 152.904 77.2183 154.75 78.2839C155.688 78.8258 156.926 79.0915 158.159 79.0823C157.829 79.7296 157.788 80.416 158.036 81.0731C156.898 80.9298 155.709 80.9535 154.587 81.1441C154.603 80.4324 154.143 79.7177 153.205 79.1758C151.359 78.1103 148.355 78.1102 146.51 79.1758C144.664 80.2415 144.664 81.9753 146.51 83.0409C147.448 83.5827 148.686 83.8484 149.919 83.8392C149.227 85.1975 149.807 86.728 151.66 87.7978L152.69 88.3924C153.116 88.6387 153.808 88.6387 154.235 88.3924L178.955 74.1216C179.381 73.8753 179.381 73.476 178.955 73.2297L177.925 72.6351C176.072 71.5653 173.42 71.2304 171.068 71.6302ZM164.535 72.6351C163.541 72.0613 163.541 71.1277 164.535 70.5539C165.529 69.9801 167.146 69.9801 168.14 70.5539C169.134 71.1277 169.134 72.0613 168.14 72.6351C167.146 73.2088 165.529 73.2088 164.535 72.6351ZM156.295 75.3109C157.289 74.7371 158.906 74.7371 159.9 75.3109C160.894 75.8846 160.894 76.8183 159.9 77.392C158.906 77.9658 157.289 77.9658 156.295 77.392C155.301 76.8183 155.301 75.8846 156.295 75.3109ZM148.055 80.0678C149.049 79.494 150.666 79.494 151.66 80.0678C152.654 80.6416 152.654 81.5752 151.66 82.149C150.666 82.7227 149.049 82.7227 148.055 82.149C147.061 81.5752 147.061 80.6416 148.055 80.0678ZM153.205 86.9059C151.359 85.8403 151.359 84.1064 153.205 83.0409C155.051 81.9753 158.054 81.9753 159.9 83.0409L160.157 83.1895L153.462 87.0545L153.205 86.9059ZM161.445 82.1489C159.599 81.0834 159.599 79.3495 161.445 78.2839C163.29 77.2183 166.294 77.2183 168.14 78.2839L168.397 78.4326L161.702 82.2976L161.445 82.1489ZM176.637 73.6757L169.942 77.5407L169.685 77.392C167.839 76.3264 167.839 74.5926 169.685 73.527C171.53 72.4614 174.534 72.4614 176.38 73.527L176.637 73.6757Z" fill="#4C68EF"/>
<path d="M139.61 80.0672L153 72.3372C153.426 72.0909 153.426 71.6915 153 71.4452L142.7 65.4991C142.273 65.2528 141.581 65.2528 141.155 65.4991L127.765 73.2291C127.338 73.4754 127.338 73.8747 127.765 74.121L138.065 80.0672C138.491 80.3135 139.183 80.3135 139.61 80.0672ZM130.082 73.675L141.927 66.837L150.682 71.8912L138.837 78.7293L130.082 73.675Z" fill="#4C68EF"/>
<path d="M156.545 63.2459C156.561 62.5342 156.1 61.8195 155.162 61.2776C153.316 60.212 150.312 60.212 148.467 61.2776C146.621 62.3432 146.621 64.077 148.467 65.1426C149.405 65.6845 150.643 65.9502 151.876 65.941C151.184 67.2993 151.764 68.8298 153.617 69.8996L154.647 70.4942C155.073 70.7405 155.765 70.7405 156.192 70.4942L164.432 65.7372C164.858 65.491 164.858 65.0916 164.432 64.8453L163.402 64.2507C161.549 63.181 158.897 62.846 156.545 63.2459ZM150.012 64.2507C149.018 63.6769 149.018 62.7433 150.012 62.1695C151.006 61.5958 152.623 61.5958 153.617 62.1695C154.611 62.7433 154.611 63.6769 153.617 64.2507C152.623 64.8245 151.006 64.8245 150.012 64.2507ZM162.114 65.2913L155.419 69.1563L155.162 69.0076C153.316 67.9421 153.316 66.2082 155.162 65.1426C157.007 64.077 160.011 64.077 161.857 65.1426L162.114 65.2913Z" fill="#4C68EF"/>
<path d="M141.154 69.0672L139.094 70.2565C138.668 70.5028 138.668 70.9021 139.094 71.1484C139.521 71.3947 140.213 71.3947 140.639 71.1484L140.834 71.0358L140.834 73.0448L138.837 73.0449C138.234 73.0448 137.744 73.3272 137.744 73.6756L137.744 76.054C137.744 76.4023 138.234 76.6847 138.837 76.6847C139.139 76.6847 139.412 76.6141 139.609 76.4999C139.807 76.3858 139.929 76.2282 139.929 76.054L139.929 74.3062L141.927 74.3062C142.53 74.3062 143.019 74.0238 143.019 73.6755L143.019 71.0358L143.214 71.1484C143.641 71.3947 144.333 71.3947 144.759 71.1484C145.186 70.9021 145.186 70.5028 144.759 70.2565L142.699 69.0672C142.273 68.821 141.581 68.821 141.154 69.0672Z" fill="#4C68EF"/>
</g>
<defs>
<filter id="filter0_d" x="0.611286" y="16.7888" width="309.483" height="219.845" filterUnits="userSpaceOnUse" color-interpolation-filters="sRGB">
<feFlood flood-opacity="0" result="BackgroundImageFix"/>
<feColorMatrix in="SourceAlpha" type="matrix" values="0 0 0 0 0 0 0 0 0 0 0 0 0 0 0 0 0 0 127 0"/>
<feOffset dy="42.6221"/>
<feGaussianBlur stdDeviation="24.3555"/>
<feColorMatrix type="matrix" values="0 0 0 0 0.204793 0 0 0 0 0.269156 0 0 0 0 0.526608 0 0 0 0.05 0"/>
<feBlend mode="normal" in2="BackgroundImageFix" result="effect1_dropShadow"/>
<feBlend mode="normal" in="SourceGraphic" in2="effect1_dropShadow" result="shape"/>
</filter>
<filter id="filter1_d" x="0.611286" y="4.61108" width="309.483" height="219.845" filterUnits="userSpaceOnUse" color-interpolation-filters="sRGB">
<feFlood flood-opacity="0" result="BackgroundImageFix"/>
<feColorMatrix in="SourceAlpha" type="matrix" values="0 0 0 0 0 0 0 0 0 0 0 0 0 0 0 0 0 0 127 0"/>
<feOffset dy="42.6221"/>
<feGaussianBlur stdDeviation="24.3555"/>
<feColorMatrix type="matrix" values="0 0 0 0 0.204793 0 0 0 0 0.269156 0 0 0 0 0.526608 0 0 0 0.05 0"/>
<feBlend mode="normal" in2="BackgroundImageFix" result="effect1_dropShadow"/>
<feBlend mode="normal" in="SourceGraphic" in2="effect1_dropShadow" result="shape"/>
</filter>
<linearGradient id="paint0_linear" x1="77.1278" y1="133.408" x2="77.1278" y2="0" gradientUnits="userSpaceOnUse">
<stop stop-color="white"/>
<stop offset="1" stop-color="#F0F2FF"/>
</linearGradient>
<linearGradient id="paint1_linear" x1="77.1278" y1="133.408" x2="77.1278" y2="0" gradientUnits="userSpaceOnUse">
<stop offset="0.520833" stop-color="white"/>
<stop offset="1" stop-color="#F7F8FF"/>
</linearGradient>
<clipPath id="clip0">
<rect width="30.4463" height="30.4463" fill="white" transform="matrix(0.866044 -0.499967 0.866044 0.499967 126.992 73.6755)"/>
</clipPath>
</defs>
</svg>
