<svg width="127" height="20" viewBox="0 0 127 20" fill="none" xmlns="http://www.w3.org/2000/svg">
<path d="M20.1233 0H0.771484V19.3518H20.1233V0Z" fill="#003FFF"/>
<path fill-rule="evenodd" clip-rule="evenodd" d="M17.1759 2.89317L11.047 16.5534L10.3142 15.8261L11.8798 12.3279C11.4655 11.5959 10.9665 10.9177 10.3958 10.3062L7.58111 13.1077L6.8726 12.4044L9.68263 9.61009C9.07943 9.07353 8.41447 8.60409 7.69981 8.21337L4.2444 9.80089L3.51562 9.07753L17.1759 2.89317ZM8.69247 7.75691L15.361 4.6752L12.3274 11.3327C11.3987 9.88953 10.1549 8.66577 8.69247 7.75691Z" fill="white" stroke="white" stroke-width="0.5"/>
<path d="M28.7051 4.12801H30.1931V15.152H28.7051V4.12801Z" fill="black"/>
<path d="M36.8997 4.12801L39.3957 12.64L41.8917 4.12801H43.4277L40.1157 15.152H38.6917L35.3477 4.12801H36.8997Z" fill="black"/>
<path d="M56.2748 12.464L57.3948 13.408C56.8934 14.0054 56.28 14.4746 55.5548 14.816C54.84 15.1466 54.0614 15.312 53.2188 15.312C51.6614 15.312 50.3388 14.7626 49.2508 13.664C48.1734 12.5654 47.6348 11.232 47.6348 9.664C47.6348 8.096 48.1734 6.76266 49.2508 5.664C50.3388 4.55466 51.6614 4 53.2188 4C54.0508 4 54.824 4.16534 55.5388 4.496C56.2534 4.82666 56.8614 5.28534 57.3628 5.872L56.2428 6.8C55.4108 5.89334 54.4028 5.44 53.2188 5.44C52.0668 5.44 51.096 5.85066 50.3068 6.672C49.5174 7.49334 49.1228 8.49064 49.1228 9.664C49.1228 10.8374 49.5174 11.8346 50.3068 12.656C51.096 13.4666 52.0668 13.872 53.2188 13.872C54.456 13.872 55.4748 13.4026 56.2748 12.464Z" fill="black"/>
<path d="M70.7966 4.12801V15.152H69.2926V10.352H63.9646V15.152H62.4766V4.12801H63.9646V8.99201H69.2926V4.12801H70.7966Z" fill="black"/>
<path d="M77.0039 4.12801H83.532V5.52001H78.4919V9.04001H82.892V10.432H78.4919V13.76H83.692V15.152H77.0039V4.12801Z" fill="black"/>
<path d="M97.186 15.152H95.762L90.738 6.84801V15.152H89.25V4.12801H90.722L95.698 12.368V4.12801H97.186V15.152Z" fill="black"/>
<path d="M106.125 9.63201L111.245 15.152H109.245L104.877 10.448V15.152H103.389V4.12801H104.877V8.89601L108.525 4.12801H110.365L106.125 9.63201Z" fill="black"/>
<path d="M114.494 9.664C114.494 8.08536 115.033 6.74666 116.11 5.648C117.187 4.54934 118.505 4 120.062 4C121.63 4 122.953 4.54934 124.03 5.648C125.118 6.74666 125.662 8.08536 125.662 9.664C125.662 11.232 125.118 12.5654 124.03 13.664C122.953 14.7626 121.63 15.312 120.062 15.312C118.505 15.312 117.187 14.7626 116.11 13.664C115.033 12.5654 114.494 11.232 114.494 9.664ZM117.166 6.672C116.377 7.49334 115.982 8.49064 115.982 9.664C115.982 10.8374 116.371 11.8346 117.15 12.656C117.939 13.4666 118.91 13.872 120.062 13.872C121.214 13.872 122.185 13.4666 122.974 12.656C123.763 11.8346 124.158 10.8374 124.158 9.664C124.158 8.49064 123.763 7.49334 122.974 6.672C122.185 5.85066 121.214 5.44 120.062 5.44C118.921 5.44 117.955 5.85066 117.166 6.672Z" fill="black"/>
</svg>
