<svg width="22" height="22" viewBox="0 0 22 22" fill="none" xmlns="http://www.w3.org/2000/svg">
<path d="M11 0C4.92495 0 0 4.92486 0 11C0 17.0751 4.92495 22 11 22C17.0751 22 22 17.0751 22 11C22 4.92486 17.0751 0 11 0ZM14.8019 11.5831L9.30188 15.0206C9.19059 15.0901 9.06404 15.125 8.9375 15.125C8.82286 15.125 8.70805 15.0965 8.60415 15.0387C8.38561 14.9175 8.25 14.6876 8.25 14.4375V7.5625C8.25 7.31242 8.38561 7.08245 8.60415 6.96128C8.82269 6.83942 9.08991 6.84681 9.30188 6.97941L14.8019 10.4169C15.0028 10.5428 15.125 10.763 15.125 11C15.125 11.237 15.0028 11.4572 14.8019 11.5831Z" fill="#4C68EF"/>
</svg>
