<svg width="30" height="30" viewBox="0 0 30 30" fill="none" xmlns="http://www.w3.org/2000/svg">
<circle cx="15" cy="15" r="15" fill="white" fill-opacity="0.2"/>
<path fill-rule="evenodd" clip-rule="evenodd" d="M11.502 8H10.9183C10.5964 8 10.3347 8.26083 10.3347 8.58362V9.75H9.75C8.78485 9.75 8 10.5349 8 11.5V20.25C8 21.2151 8.78485 22 9.75 22H20.25C21.2151 22 22 21.2151 22 20.25V11.5C22 10.5349 21.2151 9.75 20.25 9.75H19.6661V8.58362C19.6653 8.26083 19.4044 8 19.0825 8H18.4989C18.177 8 17.9153 8.26083 17.9153 8.58362V9.75H12.0856V8.58362C12.0856 8.26083 11.8239 8 11.502 8ZM20.8336 20.25C20.8336 20.5719 20.5719 20.8336 20.25 20.8336H9.75C9.42807 20.8336 9.16638 20.5719 9.16638 20.25V13.8565H20.8328V20.25H20.8336Z" fill="white"/>
</svg>
