<svg width="30" height="30" viewBox="0 0 30 30" fill="none" xmlns="http://www.w3.org/2000/svg">
<circle cx="15" cy="15" r="15" fill="white" fill-opacity="0.2"/>
<path d="M15 6C10.0372 6 6 10.0372 6 15C6 19.9628 10.0372 24 15 24C19.9628 24 24 19.9628 24 15C24 10.0372 19.9628 6 15 6ZM19.2803 19.6552C19.134 19.8014 18.942 19.875 18.75 19.875C18.5581 19.875 18.3659 19.8014 18.2198 19.6552L14.4698 15.9053C14.3287 15.7651 14.25 15.5744 14.25 15.375V10.5C14.25 10.0853 14.586 9.75005 15 9.75005C15.414 9.75005 15.75 10.0853 15.75 10.5V15.0645L19.2803 18.5947C19.5735 18.8881 19.5735 19.362 19.2803 19.6552Z" fill="white"/>
</svg>
