<svg width="30" height="30" viewBox="0 0 30 30" fill="none" xmlns="http://www.w3.org/2000/svg">
<circle cx="15" cy="15" r="15" fill="white" fill-opacity="0.2"/>
<path d="M14.9171 8C12.2338 8 10.0508 10.1831 10.0508 12.8663C10.0508 16.2389 14.9219 22 14.9219 22C14.9219 22 19.7834 16.0731 19.7834 12.8663C19.7834 10.1831 17.6005 8 14.9171 8ZM16.3854 14.2912C15.9805 14.696 15.4489 14.8984 14.9171 14.8984C14.3854 14.8984 13.8536 14.696 13.4489 14.2912C12.6393 13.4817 12.6393 12.1644 13.4489 11.3547C13.841 10.9625 14.3625 10.7465 14.9171 10.7465C15.4718 10.7465 15.9932 10.9626 16.3854 11.3547C17.195 12.1644 17.195 13.4817 16.3854 14.2912Z" fill="white"/>
</svg>
