<svg width="143" height="91" viewBox="0 0 143 91" fill="none" xmlns="http://www.w3.org/2000/svg">
<g opacity="0.1">
<path d="M71.329 64.9985C82.0721 64.9985 90.7811 56.2688 90.7811 45.5001C90.7811 34.7314 82.0721 26.0017 71.329 26.0017C60.586 26.0017 51.877 34.7314 51.877 45.5001C51.877 56.2688 60.586 64.9985 71.329 64.9985Z" fill="white"/>
<path d="M71.3286 0C32.4212 0 0 42.2492 0 45.5C0 48.7476 32.4212 91 71.3286 91C110.234 91 142.657 48.7508 142.657 45.5C142.657 42.2476 110.236 0 71.3286 0ZM71.3286 77.9984C53.4172 77.9984 38.9074 63.4509 38.9074 45.5C38.9074 27.5444 53.4172 13.0016 71.3286 13.0016C89.2384 13.0016 103.75 27.5444 103.75 45.5C103.75 63.4509 89.2384 77.9984 71.3286 77.9984Z" fill="white"/>
</g>
</svg>
