<svg width="103" height="121" viewBox="0 0 103 121" fill="none" xmlns="http://www.w3.org/2000/svg">
<g opacity="0.2">
<path d="M15.0202 98.8999C20.9457 98.8999 25.7493 94.087 25.7493 88.1499C25.7493 82.2128 20.9457 77.3999 15.0202 77.3999C9.09462 77.3999 4.29102 82.2128 4.29102 88.1499C4.29102 94.087 9.09462 98.8999 15.0202 98.8999Z" fill="white"/>
<path d="M19.3125 101.05H10.7292C7.88361 101.05 5.15461 102.182 3.1425 104.198C1.13039 106.214 0 108.949 0 111.8V118.25C0 118.82 0.226079 119.367 0.6285 119.77C1.03092 120.173 1.57672 120.4 2.14583 120.4H27.8958C28.4649 120.4 29.0107 120.173 29.4132 119.77C29.8156 119.367 30.0417 118.82 30.0417 118.25V111.8C30.0417 108.949 28.9113 106.214 26.8992 104.198C24.8871 102.182 22.158 101.05 19.3125 101.05Z" fill="white"/>
<path d="M87.9792 98.8999C93.9047 98.8999 98.7083 94.087 98.7083 88.1499C98.7083 82.2128 93.9047 77.3999 87.9792 77.3999C82.0536 77.3999 77.25 82.2128 77.25 88.1499C77.25 94.087 82.0536 98.8999 87.9792 98.8999Z" fill="white"/>
<path d="M92.2715 101.05H83.6881C80.8426 101.05 78.1136 102.182 76.1015 104.198C74.0894 106.214 72.959 108.949 72.959 111.8V118.25C72.959 118.82 73.1851 119.367 73.5875 119.77C73.9899 120.173 74.5357 120.4 75.1048 120.4H100.855C101.424 120.4 101.97 120.173 102.372 119.77C102.775 119.367 103.001 118.82 103.001 118.25V111.8C103.001 108.949 101.87 106.214 99.8581 104.198C97.846 102.182 95.117 101.05 92.2715 101.05Z" fill="white"/>
<path d="M79.3957 10.75H76.2199C78.3052 14.729 79.395 19.1558 79.3957 23.65V36.55C79.3957 43.9628 76.4567 51.072 71.2252 56.3136C65.9937 61.5553 58.8983 64.5 51.4999 64.5H35.2988C39.669 68.6595 45.4722 70.9699 51.4999 70.95H62.5509L73.4947 83.1405C73.784 83.4692 74.1667 83.7015 74.5915 83.8062C75.0162 83.9109 75.4628 83.8831 75.8713 83.7264C76.2799 83.5696 76.6308 83.2916 76.8772 82.9294C77.1236 82.5672 77.2536 82.1383 77.2499 81.7V70.95H79.3957C85.6559 70.95 91.6597 68.4583 96.0864 64.0231C100.513 59.5878 103 53.5724 103 47.3V34.4C103 28.1276 100.513 22.1122 96.0864 17.6769C91.6597 13.2417 85.6559 10.75 79.3957 10.75Z" fill="white"/>
<path d="M9.07241e-07 36.55C-0.00131633 41.3114 1.43179 45.9623 4.11182 49.8942C6.79185 53.8262 10.594 56.8561 15.0208 58.5875V66.65C15.022 67.0835 15.1538 67.5065 15.3992 67.8636C15.6445 68.2206 15.9918 68.495 16.3956 68.6508C16.7993 68.8066 17.2406 68.8364 17.6616 68.7364C18.0826 68.6364 18.4636 68.4113 18.7546 68.0905L25.75 60.2H51.5C57.7602 60.2 63.764 57.7083 68.1906 53.2731C72.6173 48.8378 75.1041 42.8224 75.1041 36.55V23.65C75.1041 17.3776 72.6173 11.3622 68.1906 6.92693C63.764 2.49169 57.7602 0 51.5 0H23.6042C17.3439 0 11.3401 2.49169 6.9135 6.92693C2.48686 11.3622 9.07241e-07 17.3776 9.07241e-07 23.65V36.55ZM57.9375 23.65C59.2107 23.65 60.4553 24.0283 61.514 24.737C62.5726 25.4458 63.3977 26.4531 63.8849 27.6317C64.3722 28.8103 64.4997 30.1072 64.2513 31.3583C64.0029 32.6095 63.3898 33.7588 62.4895 34.6608C61.5892 35.5629 60.4421 36.1772 59.1934 36.4261C57.9446 36.6749 56.6503 36.5472 55.474 36.059C54.2977 35.5708 53.2923 34.7441 52.5849 33.6834C51.8775 32.6227 51.5 31.3757 51.5 30.1C51.5 28.3894 52.1782 26.7488 53.3855 25.5392C54.5927 24.3296 56.2301 23.65 57.9375 23.65ZM38.625 23.65C39.8982 23.65 41.1428 24.0283 42.2015 24.737C43.2601 25.4458 44.0852 26.4531 44.5725 27.6317C45.0597 28.8103 45.1872 30.1072 44.9388 31.3583C44.6904 32.6095 44.0773 33.7588 43.177 34.6608C42.2767 35.5629 41.1296 36.1772 39.8809 36.4261C38.6321 36.6749 37.3378 36.5472 36.1615 36.059C34.9852 35.5708 33.9798 34.7441 33.2724 33.6834C32.565 32.6227 32.1875 31.3757 32.1875 30.1C32.1875 28.3894 32.8657 26.7488 34.073 25.5392C35.2803 24.3296 36.9177 23.65 38.625 23.65ZM19.3125 23.65C20.5857 23.65 21.8303 24.0283 22.889 24.737C23.9476 25.4458 24.7727 26.4531 25.26 27.6317C25.7472 28.8103 25.8747 30.1072 25.6263 31.3583C25.3779 32.6095 24.7648 33.7588 23.8645 34.6608C22.9642 35.5629 21.8171 36.1772 20.5684 36.4261C19.3196 36.6749 18.0253 36.5472 16.849 36.059C15.6727 35.5708 14.6673 34.7441 13.9599 33.6834C13.2525 32.6227 12.875 31.3757 12.875 30.1C12.875 28.3894 13.5532 26.7488 14.7605 25.5392C15.9678 24.3296 17.6052 23.65 19.3125 23.65Z" fill="white"/>
</g>
</svg>
