<svg width="20" height="16" viewBox="0 0 20 16" fill="none" xmlns="http://www.w3.org/2000/svg">
<path d="M1.75716 9.09677C1.39639 8.6786 0.764933 8.63207 0.346767 8.99284C-0.0713993 9.35361 -0.117928 9.98507 0.242843 10.4032L1.75716 9.09677ZM5.52941 15L4.77226 15.6532C4.97561 15.8889 5.27715 16.0165 5.58792 15.9983C5.8987 15.9801 6.18327 15.8182 6.3577 15.5603L5.52941 15ZM15.8283 1.56031C16.1377 1.10286 16.0178 0.481167 15.5603 0.171717C15.1029 -0.137734 14.4812 -0.0177577 14.1717 0.439691L15.8283 1.56031ZM0.242843 10.4032L4.77226 15.6532L6.28657 14.3468L1.75716 9.09677L0.242843 10.4032ZM6.3577 15.5603L15.8283 1.56031L14.1717 0.439691L4.70113 14.4397L6.3577 15.5603Z" fill="url(#paint0_linear)"/>
<defs>
<linearGradient id="paint0_linear" x1="8" y1="15" x2="8" y2="1" gradientUnits="userSpaceOnUse">
<stop stop-color="white"/>
<stop offset="1" stop-color="#DDE2FF"/>
</linearGradient>
</defs>
</svg>
