<svg width="117" height="83" viewBox="0 0 117 83" fill="none" xmlns="http://www.w3.org/2000/svg">
<path opacity="0.2" fill-rule="evenodd" clip-rule="evenodd" d="M104.278 2.52169C109.289 3.88001 113.241 7.85614 114.589 12.9004C117.096 22.114 117 41.3191 117 41.3191C117 41.3191 117 60.4262 114.59 69.6407C113.241 74.6841 109.29 78.6611 104.278 80.0185C95.1219 82.4441 58.4998 82.4441 58.4998 82.4441C58.4998 82.4441 21.9731 82.4441 12.7218 79.9224C7.70969 78.5641 3.75889 74.587 2.40922 69.5436C0 60.4262 0 41.222 0 41.222C0 41.222 0 22.114 2.40922 12.9004C3.75799 7.85703 7.8061 3.78298 12.7209 2.42557C21.8767 0 58.4989 0 58.4989 0C58.4989 0 95.1219 0 104.278 2.52169ZM77.2925 41.2221L46.8383 58.8749V23.5693L77.2925 41.2221Z" fill="white"/>
</svg>
