<svg width="220" height="24" viewBox="0 0 220 24" fill="none" xmlns="http://www.w3.org/2000/svg">
<path d="M108.716 8.15715L108.705 2.66158L105.979 7.24122H105.483L102.757 2.69391V8.15715H101.723V0.61421H102.606L105.753 5.91582L108.856 0.61421H109.74L109.75 8.15715H108.716Z" fill="#1E376A"/>
<path d="M114.309 8.2218C113.742 8.2218 113.232 8.09609 112.779 7.84466C112.327 7.59322 111.971 7.2484 111.713 6.8102C111.461 6.3648 111.335 5.86194 111.335 5.30161C111.335 4.74127 111.461 4.242 111.713 3.8038C111.971 3.3584 112.327 3.01358 112.779 2.76934C113.232 2.5179 113.742 2.39219 114.309 2.39219C114.877 2.39219 115.383 2.5179 115.829 2.76934C116.281 3.01358 116.633 3.3584 116.885 3.8038C117.143 4.242 117.273 4.74127 117.273 5.30161C117.273 5.86194 117.143 6.3648 116.885 6.8102C116.633 7.2484 116.281 7.59322 115.829 7.84466C115.383 8.09609 114.877 8.2218 114.309 8.2218ZM114.309 7.31665C114.676 7.31665 115.003 7.23404 115.29 7.06881C115.585 6.8964 115.814 6.65934 115.98 6.35762C116.145 6.04872 116.227 5.69671 116.227 5.30161C116.227 4.9065 116.145 4.55809 115.98 4.25637C115.814 3.94747 115.585 3.71041 115.29 3.54518C115.003 3.37995 114.676 3.29734 114.309 3.29734C113.943 3.29734 113.613 3.37995 113.318 3.54518C113.031 3.71041 112.801 3.94747 112.628 4.25637C112.463 4.55809 112.381 4.9065 112.381 5.30161C112.381 5.69671 112.463 6.04872 112.628 6.35762C112.801 6.65934 113.031 6.8964 113.318 7.06881C113.613 7.23404 113.943 7.31665 114.309 7.31665Z" fill="#1E376A"/>
<path d="M121.731 2.39219C122.284 2.39219 122.78 2.51431 123.218 2.75856C123.657 3.00281 123.998 3.34404 124.242 3.78224C124.493 4.22045 124.619 4.72691 124.619 5.30161C124.619 5.87631 124.493 6.38635 124.242 6.83175C123.998 7.26996 123.657 7.61118 123.218 7.85543C122.78 8.09968 122.284 8.2218 121.731 8.2218C121.307 8.2218 120.92 8.13919 120.568 7.97396C120.216 7.80874 119.925 7.56808 119.695 7.252V8.15715H118.703V0.161634H119.738V3.30812C119.968 3.0064 120.255 2.78011 120.6 2.62925C120.945 2.47121 121.322 2.39219 121.731 2.39219ZM121.645 7.31665C122.011 7.31665 122.338 7.23404 122.626 7.06881C122.92 6.8964 123.15 6.65934 123.315 6.35762C123.488 6.04872 123.574 5.69671 123.574 5.30161C123.574 4.9065 123.488 4.55809 123.315 4.25637C123.15 3.94747 122.92 3.71041 122.626 3.54518C122.338 3.37995 122.011 3.29734 121.645 3.29734C121.286 3.29734 120.959 3.37995 120.665 3.54518C120.37 3.71041 120.14 3.94747 119.975 4.25637C119.81 4.55809 119.727 4.9065 119.727 5.30161C119.727 5.69671 119.81 6.04872 119.975 6.35762C120.14 6.65934 120.37 6.8964 120.665 7.06881C120.959 7.23404 121.286 7.31665 121.645 7.31665Z" fill="#1E376A"/>
<path d="M126.048 2.44607H127.083V8.15715H126.048V2.44607ZM126.566 1.34695C126.365 1.34695 126.196 1.2823 126.059 1.15299C125.93 1.02368 125.865 0.865642 125.865 0.678865C125.865 0.492087 125.93 0.334044 126.059 0.204737C126.196 0.0682456 126.365 0 126.566 0C126.767 0 126.932 0.0646538 127.061 0.193961C127.198 0.316085 127.266 0.470535 127.266 0.657313C127.266 0.851274 127.198 1.0165 127.061 1.15299C126.932 1.2823 126.767 1.34695 126.566 1.34695Z" fill="#1E376A"/>
<path d="M129.058 0.161634H130.093V8.15715H129.058V0.161634Z" fill="#1E376A"/>
<path d="M137.229 5.33393C137.229 5.41296 137.222 5.51712 137.208 5.64643H132.574C132.639 6.14929 132.858 6.55517 133.231 6.86407C133.612 7.16579 134.083 7.31665 134.643 7.31665C135.325 7.31665 135.875 7.08677 136.292 6.62701L136.863 7.2951C136.604 7.59682 136.281 7.8267 135.893 7.98474C135.512 8.14278 135.085 8.2218 134.611 8.2218C134.007 8.2218 133.472 8.09968 133.005 7.85543C132.538 7.604 132.175 7.25559 131.917 6.8102C131.665 6.3648 131.54 5.86194 131.54 5.30161C131.54 4.74846 131.662 4.24919 131.906 3.8038C132.157 3.3584 132.499 3.01358 132.93 2.76934C133.368 2.5179 133.86 2.39219 134.406 2.39219C134.952 2.39219 135.437 2.5179 135.861 2.76934C136.292 3.01358 136.626 3.3584 136.863 3.8038C137.107 4.24919 137.229 4.75923 137.229 5.33393ZM134.406 3.26501C133.91 3.26501 133.494 3.41587 133.156 3.71759C132.826 4.01931 132.632 4.41441 132.574 4.90291H136.238C136.18 4.4216 135.983 4.03008 135.645 3.72837C135.315 3.41947 134.902 3.26501 134.406 3.26501Z" fill="#1E376A"/>
<path d="M148.704 8.15715L148.693 2.66158L145.967 7.24122H145.471L142.745 2.69391V8.15715H141.71V0.61421H142.594L145.74 5.91582L148.844 0.61421H149.727L149.738 8.15715H148.704Z" fill="#1E376A"/>
<path d="M153.931 2.39219C154.721 2.39219 155.324 2.58615 155.741 2.97407C156.165 3.36199 156.377 3.94029 156.377 4.70895V8.15715H155.396V7.40285C155.224 7.66865 154.976 7.87339 154.653 8.01707C154.337 8.15356 153.959 8.2218 153.521 8.2218C152.882 8.2218 152.368 8.06735 151.98 7.75845C151.6 7.44955 151.409 7.04367 151.409 6.5408C151.409 6.03794 151.592 5.63565 151.959 5.33393C152.325 5.02503 152.907 4.87058 153.704 4.87058H155.342V4.66585C155.342 4.22045 155.213 3.87922 154.954 3.64216C154.696 3.4051 154.315 3.28657 153.812 3.28657C153.475 3.28657 153.144 3.34404 152.821 3.45898C152.498 3.56673 152.225 3.714 152.002 3.90078L151.571 3.12493C151.865 2.88787 152.217 2.70827 152.627 2.58615C153.036 2.45684 153.471 2.39219 153.931 2.39219ZM153.694 7.42441C154.089 7.42441 154.43 7.3382 154.717 7.16579C155.005 6.9862 155.213 6.73477 155.342 6.4115V5.6141H153.748C152.871 5.6141 152.433 5.90863 152.433 6.4977C152.433 6.78505 152.544 7.01134 152.767 7.17657C152.99 7.34179 153.299 7.42441 153.694 7.42441Z" fill="#1E376A"/>
<path d="M159.283 3.4051C159.462 3.07464 159.728 2.82321 160.08 2.6508C160.432 2.47839 160.859 2.39219 161.362 2.39219V3.39432C161.305 3.38714 161.226 3.38355 161.125 3.38355C160.565 3.38355 160.123 3.55236 159.8 3.89C159.484 4.22045 159.326 4.69458 159.326 5.31238V8.15715H158.291V2.44607H159.283V3.4051Z" fill="#1E376A"/>
<path d="M164.857 5.49557L163.672 6.59468V8.15715H162.637V0.161634H163.672V5.29083L166.786 2.44607H168.036L165.633 4.80593L168.273 8.15715H167.001L164.857 5.49557Z" fill="#1E376A"/>
<path d="M174.197 5.33393C174.197 5.41296 174.19 5.51712 174.175 5.64643H169.542C169.606 6.14929 169.825 6.55517 170.199 6.86407C170.58 7.16579 171.05 7.31665 171.611 7.31665C172.293 7.31665 172.843 7.08677 173.259 6.62701L173.83 7.2951C173.572 7.59682 173.248 7.8267 172.861 7.98474C172.48 8.14278 172.052 8.2218 171.578 8.2218C170.975 8.2218 170.44 8.09968 169.973 7.85543C169.506 7.604 169.143 7.25559 168.884 6.8102C168.633 6.3648 168.507 5.86194 168.507 5.30161C168.507 4.74846 168.629 4.24919 168.874 3.8038C169.125 3.3584 169.466 3.01358 169.897 2.76934C170.335 2.5179 170.828 2.39219 171.374 2.39219C171.919 2.39219 172.404 2.5179 172.828 2.76934C173.259 3.01358 173.593 3.3584 173.83 3.8038C174.075 4.24919 174.197 4.75923 174.197 5.33393ZM171.374 3.26501C170.878 3.26501 170.461 3.41587 170.124 3.71759C169.793 4.01931 169.599 4.41441 169.542 4.90291H173.205C173.148 4.4216 172.95 4.03008 172.613 3.72837C172.282 3.41947 171.869 3.26501 171.374 3.26501Z" fill="#1E376A"/>
<path d="M178.844 7.8231C178.693 7.95241 178.507 8.05298 178.284 8.12482C178.061 8.18948 177.831 8.2218 177.594 8.2218C177.02 8.2218 176.574 8.06735 176.258 7.75845C175.942 7.44955 175.784 7.00775 175.784 6.43305V3.29734H174.814V2.44607H175.784V1.19609H176.818V2.44607H178.456V3.29734H176.818V6.38995C176.818 6.69885 176.894 6.93591 177.045 7.10114C177.203 7.26636 177.426 7.34898 177.713 7.34898C178.029 7.34898 178.298 7.25918 178.521 7.07959L178.844 7.8231Z" fill="#1E376A"/>
<path d="M180.095 2.44607H181.129V8.15715H180.095V2.44607ZM180.612 1.34695C180.411 1.34695 180.242 1.2823 180.106 1.15299C179.976 1.02368 179.912 0.865642 179.912 0.678865C179.912 0.492087 179.976 0.334044 180.106 0.204737C180.242 0.0682456 180.411 0 180.612 0C180.813 0 180.979 0.0646538 181.108 0.193961C181.244 0.316085 181.313 0.470535 181.313 0.657313C181.313 0.851274 181.244 1.0165 181.108 1.15299C180.979 1.2823 180.813 1.34695 180.612 1.34695Z" fill="#1E376A"/>
<path d="M186.154 2.39219C186.88 2.39219 187.454 2.60411 187.878 3.02795C188.309 3.44461 188.525 4.05882 188.525 4.87058V8.15715H187.49V4.98911C187.49 4.43597 187.357 4.01931 187.092 3.73914C186.826 3.45898 186.445 3.31889 185.949 3.31889C185.389 3.31889 184.947 3.48412 184.624 3.81457C184.301 4.13784 184.139 4.60478 184.139 5.2154V8.15715H183.105V2.44607H184.096V3.30812C184.304 3.01358 184.584 2.78729 184.936 2.62925C185.296 2.47121 185.701 2.39219 186.154 2.39219Z" fill="#1E376A"/>
<path d="M195.934 2.44607V7.3813C195.934 8.37984 195.686 9.11618 195.19 9.59031C194.695 10.0716 193.955 10.3123 192.971 10.3123C192.432 10.3123 191.918 10.2368 191.43 10.086C190.941 9.94231 190.546 9.73398 190.244 9.461L190.74 8.6636C191.006 8.89348 191.333 9.07308 191.721 9.20238C192.116 9.33887 192.522 9.40712 192.938 9.40712C193.606 9.40712 194.098 9.24908 194.415 8.93299C194.738 8.61691 194.899 8.1356 194.899 7.48906V7.03648C194.655 7.33102 194.354 7.55371 193.994 7.70457C193.642 7.84825 193.258 7.92008 192.841 7.92008C192.295 7.92008 191.8 7.80514 191.354 7.57526C190.916 7.3382 190.571 7.01134 190.32 6.59468C190.068 6.17084 189.943 5.68953 189.943 5.15075C189.943 4.61197 190.068 4.13425 190.32 3.71759C190.571 3.29375 190.916 2.96689 191.354 2.73701C191.8 2.50713 192.295 2.39219 192.841 2.39219C193.272 2.39219 193.671 2.47121 194.037 2.62925C194.411 2.78729 194.716 3.02077 194.953 3.32967V2.44607H195.934ZM192.96 7.01493C193.333 7.01493 193.667 6.93591 193.962 6.77787C194.264 6.61983 194.497 6.40072 194.662 6.12056C194.835 5.83321 194.921 5.50994 194.921 5.15075C194.921 4.5976 194.738 4.15221 194.371 3.81457C194.005 3.46975 193.535 3.29734 192.96 3.29734C192.378 3.29734 191.904 3.46975 191.537 3.81457C191.171 4.15221 190.988 4.5976 190.988 5.15075C190.988 5.50994 191.071 5.83321 191.236 6.12056C191.408 6.40072 191.642 6.61983 191.936 6.77787C192.238 6.93591 192.579 7.01493 192.96 7.01493Z" fill="#1E376A"/>
<path d="M202.884 2.39219C203.674 2.39219 204.278 2.58615 204.694 2.97407C205.118 3.36199 205.33 3.94029 205.33 4.70895V8.15715H204.35V7.40285C204.177 7.66865 203.929 7.87339 203.606 8.01707C203.29 8.15356 202.913 8.2218 202.475 8.2218C201.835 8.2218 201.322 8.06735 200.934 7.75845C200.553 7.44955 200.363 7.04367 200.363 6.5408C200.363 6.03794 200.546 5.63565 200.912 5.33393C201.278 5.02503 201.86 4.87058 202.658 4.87058H204.296V4.66585C204.296 4.22045 204.166 3.87922 203.908 3.64216C203.649 3.4051 203.268 3.28657 202.766 3.28657C202.428 3.28657 202.097 3.34404 201.774 3.45898C201.451 3.56673 201.178 3.714 200.955 3.90078L200.524 3.12493C200.819 2.88787 201.171 2.70827 201.58 2.58615C201.99 2.45684 202.424 2.39219 202.884 2.39219ZM202.647 7.42441C203.042 7.42441 203.383 7.3382 203.671 7.16579C203.958 6.9862 204.166 6.73477 204.296 6.4115V5.6141H202.701C201.824 5.6141 201.386 5.90863 201.386 6.4977C201.386 6.78505 201.498 7.01134 201.72 7.17657C201.943 7.34179 202.252 7.42441 202.647 7.42441Z" fill="#1E376A"/>
<path d="M210.294 2.39219C211.02 2.39219 211.594 2.60411 212.018 3.02795C212.449 3.44461 212.665 4.05882 212.665 4.87058V8.15715H211.63V4.98911C211.63 4.43597 211.497 4.01931 211.231 3.73914C210.966 3.45898 210.585 3.31889 210.089 3.31889C209.529 3.31889 209.087 3.48412 208.764 3.81457C208.441 4.13784 208.279 4.60478 208.279 5.2154V8.15715H207.244V2.44607H208.236V3.30812C208.444 3.01358 208.724 2.78729 209.076 2.62925C209.436 2.47121 209.841 2.39219 210.294 2.39219Z" fill="#1E376A"/>
<path d="M219.998 0.161634V8.15715H219.007V7.252C218.777 7.56808 218.486 7.80874 218.134 7.97396C217.782 8.13919 217.394 8.2218 216.97 8.2218C216.417 8.2218 215.922 8.09968 215.483 7.85543C215.045 7.61118 214.7 7.26996 214.449 6.83175C214.205 6.38635 214.083 5.87631 214.083 5.30161C214.083 4.72691 214.205 4.22045 214.449 3.78224C214.7 3.34404 215.045 3.00281 215.483 2.75856C215.922 2.51431 216.417 2.39219 216.97 2.39219C217.38 2.39219 217.757 2.47121 218.102 2.62925C218.447 2.78011 218.734 3.0064 218.964 3.30812V0.161634H219.998ZM217.057 7.31665C217.416 7.31665 217.743 7.23404 218.037 7.06881C218.332 6.8964 218.562 6.65934 218.727 6.35762C218.892 6.04872 218.975 5.69671 218.975 5.30161C218.975 4.9065 218.892 4.55809 218.727 4.25637C218.562 3.94747 218.332 3.71041 218.037 3.54518C217.743 3.37995 217.416 3.29734 217.057 3.29734C216.69 3.29734 216.36 3.37995 216.065 3.54518C215.778 3.71041 215.548 3.94747 215.376 4.25637C215.21 4.55809 215.128 4.9065 215.128 5.30161C215.128 5.69671 215.21 6.04872 215.376 6.35762C215.548 6.65934 215.778 6.8964 216.065 7.06881C216.36 7.23404 216.69 7.31665 217.057 7.31665Z" fill="#1E376A"/>
<path d="M106.798 17.7151C107.236 17.8372 107.581 18.0599 107.832 18.3832C108.084 18.6993 108.21 19.1016 108.21 19.5901C108.21 20.2438 107.962 20.7467 107.466 21.0987C106.978 21.4507 106.263 21.6267 105.322 21.6267H101.723V14.0837H105.106C105.968 14.0837 106.633 14.2562 107.1 14.601C107.574 14.9458 107.811 15.4235 107.811 16.0341C107.811 16.4292 107.717 16.7705 107.531 17.0578C107.351 17.3452 107.107 17.5643 106.798 17.7151ZM102.8 14.9566V17.3703H105.009C105.562 17.3703 105.986 17.2697 106.281 17.0686C106.582 16.8603 106.733 16.5585 106.733 16.1634C106.733 15.7683 106.582 15.4702 106.281 15.2691C105.986 15.0607 105.562 14.9566 105.009 14.9566H102.8ZM105.279 20.7539C105.889 20.7539 106.349 20.6533 106.658 20.4521C106.967 20.251 107.121 19.9349 107.121 19.5039C107.121 18.6634 106.507 18.2431 105.279 18.2431H102.8V20.7539H105.279Z" fill="#1E376A"/>
<path d="M115.05 15.9156V21.6267H114.07V20.7646C113.861 21.0592 113.585 21.289 113.24 21.4543C112.902 21.6123 112.532 21.6913 112.13 21.6913C111.369 21.6913 110.769 21.483 110.331 21.0663C109.892 20.6425 109.673 20.0211 109.673 19.2022V15.9156H110.708V19.0836C110.708 19.6368 110.841 20.057 111.106 20.3444C111.372 20.6245 111.753 20.7646 112.249 20.7646C112.795 20.7646 113.226 20.5994 113.542 20.2689C113.858 19.9385 114.016 19.4716 114.016 18.8681V15.9156H115.05Z" fill="#1E376A"/>
<path d="M118.658 21.6913C118.191 21.6913 117.742 21.6303 117.311 21.5081C116.88 21.3788 116.542 21.2172 116.298 21.0232L116.729 20.2043C116.98 20.3839 117.285 20.5276 117.645 20.6353C118.004 20.7431 118.367 20.797 118.733 20.797C119.638 20.797 120.091 20.5383 120.091 20.0211C120.091 19.8487 120.03 19.7122 119.908 19.6116C119.785 19.5111 119.631 19.4392 119.444 19.3961C119.265 19.3458 119.006 19.292 118.668 19.2345C118.209 19.1627 117.831 19.08 117.537 18.9867C117.25 18.8933 117.002 18.7352 116.793 18.5125C116.585 18.2898 116.481 17.9773 116.481 17.575C116.481 17.0578 116.696 16.6447 117.127 16.3358C117.558 16.0198 118.137 15.8617 118.862 15.8617C119.243 15.8617 119.624 15.9084 120.005 16.0018C120.385 16.0952 120.698 16.2209 120.942 16.3789L120.5 17.1979C120.033 16.8962 119.484 16.7453 118.852 16.7453C118.413 16.7453 118.079 16.8172 117.849 16.9608C117.62 17.1045 117.505 17.2949 117.505 17.5319C117.505 17.7187 117.569 17.866 117.699 17.9737C117.828 18.0815 117.986 18.1605 118.173 18.2108C118.367 18.2611 118.636 18.3186 118.981 18.3832C119.441 18.4622 119.811 18.5484 120.091 18.6418C120.378 18.728 120.622 18.8789 120.823 19.0944C121.025 19.3099 121.125 19.6116 121.125 19.9996C121.125 20.5168 120.902 20.9299 120.457 21.2388C120.019 21.5405 119.419 21.6913 118.658 21.6913Z" fill="#1E376A"/>
<path d="M122.418 15.9156H123.452V21.6267H122.418V15.9156ZM122.935 14.8165C122.734 14.8165 122.565 14.7518 122.429 14.6225C122.299 14.4932 122.235 14.3352 122.235 14.1484C122.235 13.9616 122.299 13.8036 122.429 13.6743C122.565 13.5378 122.734 13.4695 122.935 13.4695C123.136 13.4695 123.302 13.5342 123.431 13.6635C123.567 13.7856 123.636 13.9401 123.636 14.1268C123.636 14.3208 123.567 14.486 123.431 14.6225C123.302 14.7518 123.136 14.8165 122.935 14.8165Z" fill="#1E376A"/>
<path d="M128.477 15.8617C129.203 15.8617 129.777 16.0736 130.201 16.4975C130.632 16.9141 130.848 17.5283 130.848 18.3401V21.6267H129.813V18.4586C129.813 17.9055 129.68 17.4888 129.415 17.2087C129.149 16.9285 128.768 16.7884 128.272 16.7884C127.712 16.7884 127.27 16.9536 126.947 17.2841C126.624 17.6074 126.462 18.0743 126.462 18.6849V21.6267H125.428V15.9156H126.419V16.7776C126.627 16.4831 126.907 16.2568 127.259 16.0988C127.619 15.9407 128.025 15.8617 128.477 15.8617Z" fill="#1E376A"/>
<path d="M137.955 18.8035C137.955 18.8825 137.948 18.9867 137.934 19.116H133.3C133.365 19.6188 133.584 20.0247 133.958 20.3336C134.338 20.6353 134.809 20.7862 135.369 20.7862C136.052 20.7862 136.601 20.5563 137.018 20.0965L137.589 20.7646C137.33 21.0663 137.007 21.2962 136.619 21.4543C136.238 21.6123 135.811 21.6913 135.337 21.6913C134.733 21.6913 134.198 21.5692 133.731 21.325C133.264 21.0735 132.902 20.7251 132.643 20.2797C132.391 19.8343 132.266 19.3315 132.266 18.7711C132.266 18.218 132.388 17.7187 132.632 17.2733C132.884 16.8279 133.225 16.4831 133.656 16.2389C134.094 15.9874 134.586 15.8617 135.132 15.8617C135.678 15.8617 136.163 15.9874 136.587 16.2389C137.018 16.4831 137.352 16.8279 137.589 17.2733C137.833 17.7187 137.955 18.2288 137.955 18.8035ZM135.132 16.7345C134.636 16.7345 134.22 16.8854 133.882 17.1871C133.552 17.4888 133.358 17.8839 133.3 18.3724H136.964C136.906 17.8911 136.709 17.4996 136.371 17.1979C136.041 16.889 135.628 16.7345 135.132 16.7345Z" fill="#1E376A"/>
<path d="M141.03 21.6913C140.563 21.6913 140.114 21.6303 139.683 21.5081C139.252 21.3788 138.914 21.2172 138.67 21.0232L139.101 20.2043C139.352 20.3839 139.658 20.5276 140.017 20.6353C140.376 20.7431 140.739 20.797 141.105 20.797C142.01 20.797 142.463 20.5383 142.463 20.0211C142.463 19.8487 142.402 19.7122 142.28 19.6116C142.157 19.5111 142.003 19.4392 141.816 19.3961C141.637 19.3458 141.378 19.292 141.04 19.2345C140.581 19.1627 140.203 19.08 139.909 18.9867C139.622 18.8933 139.374 18.7352 139.165 18.5125C138.957 18.2898 138.853 17.9773 138.853 17.575C138.853 17.0578 139.068 16.6447 139.499 16.3358C139.931 16.0198 140.509 15.8617 141.234 15.8617C141.615 15.8617 141.996 15.9084 142.377 16.0018C142.757 16.0952 143.07 16.2209 143.314 16.3789L142.872 17.1979C142.405 16.8962 141.856 16.7453 141.224 16.7453C140.785 16.7453 140.451 16.8172 140.221 16.9608C139.992 17.1045 139.877 17.2949 139.877 17.5319C139.877 17.7187 139.941 17.866 140.071 17.9737C140.2 18.0815 140.358 18.1605 140.545 18.2108C140.739 18.2611 141.008 18.3186 141.353 18.3832C141.813 18.4622 142.183 18.5484 142.463 18.6418C142.75 18.728 142.994 18.8789 143.196 19.0944C143.397 19.3099 143.497 19.6116 143.497 19.9996C143.497 20.5168 143.275 20.9299 142.829 21.2388C142.391 21.5405 141.791 21.6913 141.03 21.6913Z" fill="#1E376A"/>
<path d="M146.428 21.6913C145.961 21.6913 145.512 21.6303 145.081 21.5081C144.65 21.3788 144.312 21.2172 144.068 21.0232L144.499 20.2043C144.751 20.3839 145.056 20.5276 145.415 20.6353C145.774 20.7431 146.137 20.797 146.503 20.797C147.409 20.797 147.861 20.5383 147.861 20.0211C147.861 19.8487 147.8 19.7122 147.678 19.6116C147.556 19.5111 147.401 19.4392 147.215 19.3961C147.035 19.3458 146.776 19.292 146.439 19.2345C145.979 19.1627 145.602 19.08 145.307 18.9867C145.02 18.8933 144.772 18.7352 144.564 18.5125C144.355 18.2898 144.251 17.9773 144.251 17.575C144.251 17.0578 144.467 16.6447 144.898 16.3358C145.329 16.0198 145.907 15.8617 146.633 15.8617C147.013 15.8617 147.394 15.9084 147.775 16.0018C148.156 16.0952 148.468 16.2209 148.712 16.3789L148.271 17.1979C147.804 16.8962 147.254 16.7453 146.622 16.7453C146.184 16.7453 145.85 16.8172 145.62 16.9608C145.39 17.1045 145.275 17.2949 145.275 17.5319C145.275 17.7187 145.34 17.866 145.469 17.9737C145.598 18.0815 145.756 18.1605 145.943 18.2108C146.137 18.2611 146.406 18.3186 146.751 18.3832C147.211 18.4622 147.581 18.5484 147.861 18.6418C148.148 18.728 148.393 18.8789 148.594 19.0944C148.795 19.3099 148.896 19.6116 148.896 19.9996C148.896 20.5168 148.673 20.9299 148.227 21.2388C147.789 21.5405 147.189 21.6913 146.428 21.6913Z" fill="#1E376A"/>
<path d="M158.039 19.7409H154.03L153.201 21.6267H152.091L155.507 14.0837H156.574L160 21.6267H158.869L158.039 19.7409ZM157.662 18.8789L156.035 15.1829L154.408 18.8789H157.662Z" fill="#1E376A"/>
<path d="M163.411 21.6913C162.829 21.6913 162.308 21.5656 161.849 21.3142C161.396 21.0628 161.04 20.7179 160.782 20.2797C160.523 19.8343 160.394 19.3315 160.394 18.7711C160.394 18.2108 160.523 17.7115 160.782 17.2733C161.04 16.8279 161.396 16.4831 161.849 16.2389C162.308 15.9874 162.829 15.8617 163.411 15.8617C163.928 15.8617 164.388 15.9659 164.79 16.1742C165.2 16.3825 165.516 16.6843 165.739 17.0794L164.952 17.5858C164.772 17.3128 164.55 17.1081 164.284 16.9716C164.018 16.8351 163.724 16.7669 163.4 16.7669C163.027 16.7669 162.689 16.8495 162.387 17.0147C162.093 17.1799 161.859 17.417 161.687 17.7259C161.522 18.0276 161.439 18.376 161.439 18.7711C161.439 19.1734 161.522 19.529 161.687 19.8379C161.859 20.1396 162.093 20.3731 162.387 20.5383C162.689 20.7036 163.027 20.7862 163.4 20.7862C163.724 20.7862 164.018 20.7179 164.284 20.5814C164.55 20.445 164.772 20.2402 164.952 19.9672L165.739 20.4629C165.516 20.858 165.2 21.1633 164.79 21.3788C164.388 21.5872 163.928 21.6913 163.411 21.6913Z" fill="#1E376A"/>
<path d="M169.158 15.8617C169.948 15.8617 170.551 16.0557 170.968 16.4436C171.392 16.8315 171.604 17.4098 171.604 18.1785V21.6267H170.623V20.8724C170.451 21.1382 170.203 21.3429 169.88 21.4866C169.563 21.6231 169.186 21.6913 168.748 21.6913C168.109 21.6913 167.595 21.5369 167.207 21.228C166.826 20.9191 166.636 20.5132 166.636 20.0103C166.636 19.5075 166.819 19.1052 167.186 18.8035C167.552 18.4946 168.134 18.3401 168.931 18.3401H170.569V18.1354C170.569 17.69 170.44 17.3488 170.181 17.1117C169.923 16.8746 169.542 16.7561 169.039 16.7561C168.701 16.7561 168.371 16.8136 168.048 16.9285C167.724 17.0363 167.451 17.1835 167.229 17.3703L166.798 16.5945C167.092 16.3574 167.444 16.1778 167.854 16.0557C168.263 15.9264 168.698 15.8617 169.158 15.8617ZM168.921 20.8939C169.316 20.8939 169.657 20.8077 169.944 20.6353C170.232 20.4557 170.44 20.2043 170.569 19.881V19.0836H168.974C168.098 19.0836 167.66 19.3782 167.66 19.9672C167.66 20.2546 167.771 20.4809 167.994 20.6461C168.217 20.8113 168.525 20.8939 168.921 20.8939Z" fill="#1E376A"/>
<path d="M178.937 13.6312V21.6267H177.946V20.7215C177.716 21.0376 177.425 21.2783 177.073 21.4435C176.721 21.6087 176.333 21.6913 175.909 21.6913C175.356 21.6913 174.861 21.5692 174.422 21.325C173.984 21.0807 173.639 20.7395 173.388 20.3013C173.144 19.8559 173.022 19.3458 173.022 18.7711C173.022 18.1964 173.144 17.69 173.388 17.2518C173.639 16.8136 173.984 16.4723 174.422 16.2281C174.861 15.9838 175.356 15.8617 175.909 15.8617C176.319 15.8617 176.696 15.9407 177.041 16.0988C177.386 16.2496 177.673 16.4759 177.903 16.7776V13.6312H178.937ZM175.996 20.7862C176.355 20.7862 176.682 20.7036 176.976 20.5383C177.271 20.3659 177.501 20.1289 177.666 19.8271C177.831 19.5182 177.914 19.1662 177.914 18.7711C177.914 18.376 177.831 18.0276 177.666 17.7259C177.501 17.417 177.271 17.1799 176.976 17.0147C176.682 16.8495 176.355 16.7669 175.996 16.7669C175.629 16.7669 175.299 16.8495 175.004 17.0147C174.717 17.1799 174.487 17.417 174.315 17.7259C174.149 18.0276 174.067 18.376 174.067 18.7711C174.067 19.1662 174.149 19.5182 174.315 19.8271C174.487 20.1289 174.717 20.3659 175.004 20.5383C175.299 20.7036 175.629 20.7862 175.996 20.7862Z" fill="#1E376A"/>
<path d="M186.056 18.8035C186.056 18.8825 186.049 18.9867 186.035 19.116H181.401C181.466 19.6188 181.685 20.0247 182.058 20.3336C182.439 20.6353 182.91 20.7862 183.47 20.7862C184.153 20.7862 184.702 20.5563 185.119 20.0965L185.69 20.7646C185.431 21.0663 185.108 21.2962 184.72 21.4543C184.339 21.6123 183.912 21.6913 183.438 21.6913C182.834 21.6913 182.299 21.5692 181.832 21.325C181.365 21.0735 181.002 20.7251 180.744 20.2797C180.492 19.8343 180.367 19.3315 180.367 18.7711C180.367 18.218 180.489 17.7187 180.733 17.2733C180.985 16.8279 181.326 16.4831 181.757 16.2389C182.195 15.9874 182.687 15.8617 183.233 15.8617C183.779 15.8617 184.264 15.9874 184.688 16.2389C185.119 16.4831 185.453 16.8279 185.69 17.2733C185.934 17.7187 186.056 18.2288 186.056 18.8035ZM183.233 16.7345C182.737 16.7345 182.321 16.8854 181.983 17.1871C181.653 17.4888 181.459 17.8839 181.401 18.3724H185.065C185.007 17.8911 184.81 17.4996 184.472 17.1979C184.142 16.889 183.729 16.7345 183.233 16.7345Z" fill="#1E376A"/>
<path d="M194.637 15.8617C195.355 15.8617 195.923 16.07 196.339 16.4867C196.763 16.9034 196.975 17.5212 196.975 18.3401V21.6267H195.941V18.4586C195.941 17.9055 195.811 17.4888 195.553 17.2087C195.301 16.9285 194.939 16.7884 194.465 16.7884C193.94 16.7884 193.523 16.9536 193.215 17.2841C192.906 17.6074 192.751 18.0743 192.751 18.6849V21.6267H191.717V18.4586C191.717 17.9055 191.587 17.4888 191.329 17.2087C191.077 16.9285 190.715 16.7884 190.24 16.7884C189.716 16.7884 189.299 16.9536 188.99 17.2841C188.682 17.6074 188.527 18.0743 188.527 18.6849V21.6267H187.493V15.9156H188.484V16.7669C188.692 16.4723 188.965 16.2496 189.303 16.0988C189.641 15.9407 190.025 15.8617 190.456 15.8617C190.901 15.8617 191.296 15.9515 191.641 16.1311C191.986 16.3107 192.252 16.5729 192.439 16.9177C192.654 16.5873 192.952 16.3287 193.333 16.1419C193.721 15.9551 194.156 15.8617 194.637 15.8617Z" fill="#1E376A"/>
<path d="M203.827 15.9156L201.058 22.1978C200.814 22.7797 200.526 23.1891 200.196 23.4262C199.873 23.6633 199.481 23.7818 199.021 23.7818C198.741 23.7818 198.468 23.7351 198.202 23.6417C197.944 23.5555 197.728 23.4262 197.556 23.2538L197.998 22.478C198.292 22.7581 198.633 22.8982 199.021 22.8982C199.273 22.8982 199.481 22.83 199.646 22.6935C199.819 22.5642 199.973 22.3379 200.11 22.0146L200.293 21.6159L197.771 15.9156H198.849L200.842 20.4845L202.814 15.9156H203.827Z" fill="#1E376A"/>
<path d="M33.9051 18.8472H38.2369L41.9868 9.66641L42.3101 21.6274H46.9975L46.0923 0.0976562H41.2433L36.071 13.8043L30.8987 0.0976562H26.0497L25.1445 21.6274H29.8319L30.1552 9.66641L33.9051 18.8472Z" fill="#1E376A"/>
<path d="M66.3009 16.4874V14.3861C66.3009 12.3819 64.9109 10.8302 63.1329 10.4099C64.8462 9.66641 65.5251 8.5673 65.5251 7.01561V4.81738C65.5251 1.90796 63.8764 0.0976562 59.383 0.0976562H50.881V21.6274H60.0618C64.3613 21.6274 66.3009 19.5261 66.3009 16.4874ZM60.6761 7.40353C60.6761 8.27636 60.0295 8.92289 58.7364 8.92289H55.73V4.00921H58.7364C60.0942 4.00921 60.6761 4.59109 60.6761 5.52857V7.40353ZM61.4519 15.8408C61.4519 17.3925 60.2558 17.7158 58.7364 17.7158H55.73V12.7051H59.4153C60.7084 12.7051 61.4519 13.3193 61.4519 14.5154V15.8408Z" fill="#1E376A"/>
<path d="M80.6303 0.0976562H74.165L67.6026 21.6274H72.6456L73.8094 17.4249H81.0183L82.182 21.6274H87.225L80.6303 0.0976562ZM77.3976 4.3648L79.8545 13.384H74.9085L77.3976 4.3648Z" fill="#1E376A"/>
<path d="M8.76058 18.8472H13.0924L16.8423 9.66641L17.1656 21.6274H21.853L20.9478 0.0976562H16.0988L10.9265 13.8043L5.75418 0.0976562H0.905152L0 21.6274H4.6874L5.01067 9.66641L8.76058 18.8472Z" fill="url(#paint0_linear)"/>
<defs>
<linearGradient id="paint0_linear" x1="7.92797" y1="0.833089" x2="10.9356" y2="27.5393" gradientUnits="userSpaceOnUse">
<stop offset="0.01" stop-color="#2BE9A3"/>
<stop offset="0.44" stop-color="#07CDBF"/>
<stop offset="0.53" stop-color="#00C7C5"/>
<stop offset="0.6" stop-color="#09C7CA"/>
<stop offset="0.73" stop-color="#21C9D8"/>
<stop offset="0.89" stop-color="#48CBEE"/>
<stop offset="1" stop-color="#66CCFF"/>
</linearGradient>
</defs>
</svg>
