<svg width="246" height="28" viewBox="0 0 246 28" fill="none" xmlns="http://www.w3.org/2000/svg">
<path d="M122.049 10L122.037 3.88002L119.001 8.98002H118.449L115.413 3.91602V10H114.261V1.60002H115.245L118.749 7.50402L122.205 1.60002H123.189L123.201 10H122.049Z" fill="#1E376A"/>
<path d="M128.278 10.072C127.646 10.072 127.078 9.93202 126.574 9.65202C126.07 9.37202 125.674 8.98802 125.386 8.50002C125.106 8.00402 124.966 7.44402 124.966 6.82002C124.966 6.19602 125.106 5.64002 125.386 5.15202C125.674 4.65602 126.07 4.27202 126.574 4.00002C127.078 3.72002 127.646 3.58002 128.278 3.58002C128.91 3.58002 129.474 3.72002 129.97 4.00002C130.474 4.27202 130.866 4.65602 131.146 5.15202C131.434 5.64002 131.578 6.19602 131.578 6.82002C131.578 7.44402 131.434 8.00402 131.146 8.50002C130.866 8.98802 130.474 9.37202 129.97 9.65202C129.474 9.93202 128.91 10.072 128.278 10.072ZM128.278 9.06402C128.686 9.06402 129.05 8.97202 129.37 8.78802C129.698 8.59602 129.954 8.33202 130.138 7.99602C130.322 7.65202 130.414 7.26002 130.414 6.82002C130.414 6.38002 130.322 5.99202 130.138 5.65602C129.954 5.31202 129.698 5.04802 129.37 4.86402C129.05 4.68002 128.686 4.58802 128.278 4.58802C127.87 4.58802 127.502 4.68002 127.174 4.86402C126.854 5.04802 126.598 5.31202 126.406 5.65602C126.222 5.99202 126.13 6.38002 126.13 6.82002C126.13 7.26002 126.222 7.65202 126.406 7.99602C126.598 8.33202 126.854 8.59602 127.174 8.78802C127.502 8.97202 127.87 9.06402 128.278 9.06402Z" fill="#1E376A"/>
<path d="M136.543 3.58002C137.159 3.58002 137.711 3.71602 138.199 3.98802C138.687 4.26002 139.067 4.64002 139.339 5.12802C139.619 5.61602 139.759 6.18002 139.759 6.82002C139.759 7.46002 139.619 8.02802 139.339 8.52402C139.067 9.01202 138.687 9.39202 138.199 9.66402C137.711 9.93602 137.159 10.072 136.543 10.072C136.071 10.072 135.639 9.98002 135.247 9.79602C134.855 9.61202 134.531 9.34402 134.275 8.99202V10H133.171V1.09602H134.323V4.60002C134.579 4.26402 134.899 4.01202 135.283 3.84402C135.667 3.66802 136.087 3.58002 136.543 3.58002ZM136.447 9.06402C136.855 9.06402 137.219 8.97202 137.539 8.78802C137.867 8.59602 138.123 8.33202 138.307 7.99602C138.499 7.65202 138.595 7.26002 138.595 6.82002C138.595 6.38002 138.499 5.99202 138.307 5.65602C138.123 5.31202 137.867 5.04802 137.539 4.86402C137.219 4.68002 136.855 4.58802 136.447 4.58802C136.047 4.58802 135.683 4.68002 135.355 4.86402C135.027 5.04802 134.771 5.31202 134.587 5.65602C134.403 5.99202 134.311 6.38002 134.311 6.82002C134.311 7.26002 134.403 7.65202 134.587 7.99602C134.771 8.33202 135.027 8.59602 135.355 8.78802C135.683 8.97202 136.047 9.06402 136.447 9.06402Z" fill="#1E376A"/>
<path d="M141.351 3.64002H142.503V10H141.351V3.64002ZM141.927 2.41602C141.703 2.41602 141.515 2.34402 141.363 2.20002C141.219 2.05602 141.147 1.88002 141.147 1.67202C141.147 1.46402 141.219 1.28802 141.363 1.14402C141.515 0.992016 141.703 0.916016 141.927 0.916016C142.151 0.916016 142.335 0.988016 142.479 1.13202C142.631 1.26802 142.707 1.44002 142.707 1.64802C142.707 1.86402 142.631 2.04802 142.479 2.20002C142.335 2.34402 142.151 2.41602 141.927 2.41602Z" fill="#1E376A"/>
<path d="M144.702 1.09602H145.854V10H144.702V1.09602Z" fill="#1E376A"/>
<path d="M153.802 6.85602C153.802 6.94402 153.794 7.06002 153.778 7.20402H148.618C148.69 7.76402 148.934 8.21602 149.35 8.56002C149.774 8.89602 150.298 9.06402 150.922 9.06402C151.682 9.06402 152.294 8.80802 152.758 8.29602L153.394 9.04002C153.106 9.37602 152.746 9.63202 152.314 9.80802C151.89 9.98402 151.414 10.072 150.886 10.072C150.214 10.072 149.618 9.93602 149.098 9.66402C148.578 9.38402 148.174 8.99602 147.886 8.50002C147.606 8.00402 147.466 7.44402 147.466 6.82002C147.466 6.20402 147.602 5.64802 147.874 5.15202C148.154 4.65602 148.534 4.27202 149.014 4.00002C149.502 3.72002 150.05 3.58002 150.658 3.58002C151.266 3.58002 151.806 3.72002 152.278 4.00002C152.758 4.27202 153.13 4.65602 153.394 5.15202C153.666 5.64802 153.802 6.21602 153.802 6.85602ZM150.658 4.55202C150.106 4.55202 149.642 4.72002 149.266 5.05602C148.898 5.39202 148.682 5.83202 148.618 6.37602H152.698C152.634 5.84002 152.414 5.40402 152.038 5.06802C151.67 4.72402 151.21 4.55202 150.658 4.55202Z" fill="#1E376A"/>
<path d="M166.58 10L166.568 3.88002L163.532 8.98002H162.98L159.944 3.91602V10H158.792V1.60002H159.776L163.28 7.50402L166.736 1.60002H167.72L167.732 10H166.58Z" fill="#1E376A"/>
<path d="M172.401 3.58002C173.281 3.58002 173.953 3.79602 174.417 4.22802C174.889 4.66002 175.125 5.30402 175.125 6.16002V10H174.033V9.16002C173.841 9.45602 173.565 9.68402 173.205 9.84402C172.853 9.99602 172.433 10.072 171.945 10.072C171.233 10.072 170.661 9.90002 170.229 9.55602C169.805 9.21202 169.593 8.76002 169.593 8.20002C169.593 7.64002 169.797 7.19202 170.205 6.85602C170.613 6.51202 171.261 6.34002 172.149 6.34002H173.973V6.11202C173.973 5.61602 173.829 5.23602 173.541 4.97202C173.253 4.70802 172.829 4.57602 172.269 4.57602C171.893 4.57602 171.525 4.64002 171.165 4.76802C170.805 4.88802 170.501 5.05202 170.253 5.26002L169.773 4.39602C170.101 4.13202 170.493 3.93202 170.949 3.79602C171.405 3.65202 171.889 3.58002 172.401 3.58002ZM172.137 9.18402C172.577 9.18402 172.957 9.08802 173.277 8.89602C173.597 8.69602 173.829 8.41602 173.973 8.05602V7.16802H172.197C171.221 7.16802 170.733 7.49602 170.733 8.15202C170.733 8.47202 170.857 8.72402 171.105 8.90802C171.353 9.09202 171.697 9.18402 172.137 9.18402Z" fill="#1E376A"/>
<path d="M178.361 4.70802C178.561 4.34002 178.857 4.06002 179.249 3.86802C179.641 3.67602 180.117 3.58002 180.677 3.58002V4.69602C180.613 4.68802 180.525 4.68402 180.413 4.68402C179.789 4.68402 179.297 4.87202 178.937 5.24802C178.585 5.61602 178.409 6.14402 178.409 6.83202V10H177.257V3.64002H178.361V4.70802Z" fill="#1E376A"/>
<path d="M184.569 7.03602L183.249 8.26002V10H182.097V1.09602H183.249V6.80802L186.717 3.64002H188.109L185.433 6.26802L188.373 10H186.957L184.569 7.03602Z" fill="#1E376A"/>
<path d="M194.97 6.85602C194.97 6.94402 194.962 7.06002 194.946 7.20402H189.786C189.858 7.76402 190.102 8.21602 190.518 8.56002C190.942 8.89602 191.466 9.06402 192.09 9.06402C192.85 9.06402 193.462 8.80802 193.926 8.29602L194.562 9.04002C194.274 9.37602 193.914 9.63202 193.482 9.80802C193.058 9.98402 192.582 10.072 192.054 10.072C191.382 10.072 190.786 9.93602 190.266 9.66402C189.746 9.38402 189.342 8.99602 189.054 8.50002C188.774 8.00402 188.634 7.44402 188.634 6.82002C188.634 6.20402 188.77 5.64802 189.042 5.15202C189.322 4.65602 189.702 4.27202 190.182 4.00002C190.67 3.72002 191.218 3.58002 191.826 3.58002C192.434 3.58002 192.974 3.72002 193.446 4.00002C193.926 4.27202 194.298 4.65602 194.562 5.15202C194.834 5.64802 194.97 6.21602 194.97 6.85602ZM191.826 4.55202C191.274 4.55202 190.81 4.72002 190.434 5.05602C190.066 5.39202 189.85 5.83202 189.786 6.37602H193.866C193.802 5.84002 193.582 5.40402 193.206 5.06802C192.838 4.72402 192.378 4.55202 191.826 4.55202Z" fill="#1E376A"/>
<path d="M200.145 9.62802C199.977 9.77202 199.769 9.88402 199.521 9.96402C199.273 10.036 199.017 10.072 198.753 10.072C198.113 10.072 197.617 9.90002 197.265 9.55602C196.913 9.21202 196.737 8.72002 196.737 8.08002V4.58802H195.657V3.64002H196.737V2.24802H197.889V3.64002H199.713V4.58802H197.889V8.03202C197.889 8.37602 197.973 8.64002 198.141 8.82402C198.317 9.00802 198.565 9.10002 198.885 9.10002C199.237 9.10002 199.537 9.00002 199.785 8.80002L200.145 9.62802Z" fill="#1E376A"/>
<path d="M201.538 3.64002H202.69V10H201.538V3.64002ZM202.114 2.41602C201.89 2.41602 201.702 2.34402 201.55 2.20002C201.406 2.05602 201.334 1.88002 201.334 1.67202C201.334 1.46402 201.406 1.28802 201.55 1.14402C201.702 0.992016 201.89 0.916016 202.114 0.916016C202.338 0.916016 202.522 0.988016 202.666 1.13202C202.818 1.26802 202.894 1.44002 202.894 1.64802C202.894 1.86402 202.818 2.04802 202.666 2.20002C202.522 2.34402 202.338 2.41602 202.114 2.41602Z" fill="#1E376A"/>
<path d="M208.286 3.58002C209.094 3.58002 209.734 3.81602 210.206 4.28802C210.686 4.75202 210.926 5.43602 210.926 6.34002V10H209.774V6.47202C209.774 5.85602 209.626 5.39202 209.33 5.08002C209.034 4.76802 208.61 4.61202 208.058 4.61202C207.434 4.61202 206.942 4.79602 206.582 5.16402C206.222 5.52402 206.042 6.04402 206.042 6.72402V10H204.89V3.64002H205.994V4.60002C206.226 4.27202 206.538 4.02002 206.93 3.84402C207.33 3.66802 207.782 3.58002 208.286 3.58002Z" fill="#1E376A"/>
<path d="M219.177 3.64002V9.13602C219.177 10.248 218.901 11.068 218.349 11.596C217.797 12.132 216.973 12.4 215.877 12.4C215.277 12.4 214.705 12.316 214.161 12.148C213.617 11.988 213.177 11.756 212.841 11.452L213.393 10.564C213.689 10.82 214.053 11.02 214.485 11.164C214.925 11.316 215.377 11.392 215.841 11.392C216.585 11.392 217.133 11.216 217.485 10.864C217.845 10.512 218.025 9.97602 218.025 9.25602V8.75202C217.753 9.08002 217.417 9.32802 217.017 9.49602C216.625 9.65602 216.197 9.73602 215.733 9.73602C215.125 9.73602 214.573 9.60802 214.077 9.35202C213.589 9.08802 213.205 8.72402 212.925 8.26002C212.645 7.78802 212.505 7.25202 212.505 6.65202C212.505 6.05202 212.645 5.52002 212.925 5.05602C213.205 4.58402 213.589 4.22002 214.077 3.96402C214.573 3.70802 215.125 3.58002 215.733 3.58002C216.213 3.58002 216.657 3.66802 217.065 3.84402C217.481 4.02002 217.821 4.28002 218.085 4.62402V3.64002H219.177ZM215.865 8.72802C216.281 8.72802 216.653 8.64002 216.981 8.46402C217.317 8.28802 217.577 8.04402 217.761 7.73202C217.953 7.41202 218.049 7.05202 218.049 6.65202C218.049 6.03602 217.845 5.54002 217.437 5.16402C217.029 4.78002 216.505 4.58802 215.865 4.58802C215.217 4.58802 214.689 4.78002 214.281 5.16402C213.873 5.54002 213.669 6.03602 213.669 6.65202C213.669 7.05202 213.761 7.41202 213.945 7.73202C214.137 8.04402 214.397 8.28802 214.725 8.46402C215.061 8.64002 215.441 8.72802 215.865 8.72802Z" fill="#1E376A"/>
<path d="M226.917 3.58002C227.797 3.58002 228.469 3.79602 228.933 4.22802C229.405 4.66002 229.641 5.30402 229.641 6.16002V10H228.549V9.16002C228.357 9.45602 228.081 9.68402 227.721 9.84402C227.369 9.99602 226.949 10.072 226.461 10.072C225.749 10.072 225.177 9.90002 224.745 9.55602C224.321 9.21202 224.109 8.76002 224.109 8.20002C224.109 7.64002 224.313 7.19202 224.721 6.85602C225.129 6.51202 225.777 6.34002 226.665 6.34002H228.489V6.11202C228.489 5.61602 228.345 5.23602 228.057 4.97202C227.769 4.70802 227.345 4.57602 226.785 4.57602C226.409 4.57602 226.041 4.64002 225.681 4.76802C225.321 4.88802 225.017 5.05202 224.769 5.26002L224.289 4.39602C224.617 4.13202 225.009 3.93202 225.465 3.79602C225.921 3.65202 226.405 3.58002 226.917 3.58002ZM226.653 9.18402C227.093 9.18402 227.473 9.08802 227.793 8.89602C228.113 8.69602 228.345 8.41602 228.489 8.05602V7.16802H226.713C225.737 7.16802 225.249 7.49602 225.249 8.15202C225.249 8.47202 225.373 8.72402 225.621 8.90802C225.869 9.09202 226.213 9.18402 226.653 9.18402Z" fill="#1E376A"/>
<path d="M235.168 3.58002C235.976 3.58002 236.616 3.81602 237.088 4.28802C237.568 4.75202 237.808 5.43602 237.808 6.34002V10H236.656V6.47202C236.656 5.85602 236.508 5.39202 236.212 5.08002C235.916 4.76802 235.492 4.61202 234.94 4.61202C234.316 4.61202 233.824 4.79602 233.464 5.16402C233.104 5.52402 232.924 6.04402 232.924 6.72402V10H231.772V3.64002H232.876V4.60002C233.108 4.27202 233.42 4.02002 233.812 3.84402C234.212 3.66802 234.664 3.58002 235.168 3.58002Z" fill="#1E376A"/>
<path d="M245.976 1.09602V10H244.872V8.99202C244.616 9.34402 244.292 9.61202 243.9 9.79602C243.508 9.98002 243.076 10.072 242.604 10.072C241.988 10.072 241.436 9.93602 240.948 9.66402C240.46 9.39202 240.076 9.01202 239.796 8.52402C239.524 8.02802 239.388 7.46002 239.388 6.82002C239.388 6.18002 239.524 5.61602 239.796 5.12802C240.076 4.64002 240.46 4.26002 240.948 3.98802C241.436 3.71602 241.988 3.58002 242.604 3.58002C243.06 3.58002 243.48 3.66802 243.864 3.84402C244.248 4.01202 244.568 4.26402 244.824 4.60002V1.09602H245.976ZM242.7 9.06402C243.1 9.06402 243.464 8.97202 243.792 8.78802C244.12 8.59602 244.376 8.33202 244.56 7.99602C244.744 7.65202 244.836 7.26002 244.836 6.82002C244.836 6.38002 244.744 5.99202 244.56 5.65602C244.376 5.31202 244.12 5.04802 243.792 4.86402C243.464 4.68002 243.1 4.58802 242.7 4.58802C242.292 4.58802 241.924 4.68002 241.596 4.86402C241.276 5.04802 241.02 5.31202 240.828 5.65602C240.644 5.99202 240.552 6.38002 240.552 6.82002C240.552 7.26002 240.644 7.65202 240.828 7.99602C241.02 8.33202 241.276 8.59602 241.596 8.78802C241.924 8.97202 242.292 9.06402 242.7 9.06402Z" fill="#1E376A"/>
<path d="M119.913 20.644C120.401 20.78 120.785 21.028 121.065 21.388C121.345 21.74 121.485 22.188 121.485 22.732C121.485 23.46 121.209 24.02 120.657 24.412C120.113 24.804 119.317 25 118.269 25H114.261V16.6H118.029C118.989 16.6 119.729 16.792 120.249 17.176C120.777 17.56 121.041 18.092 121.041 18.772C121.041 19.212 120.937 19.592 120.729 19.912C120.529 20.232 120.257 20.476 119.913 20.644ZM115.461 17.572V20.26H117.921C118.537 20.26 119.009 20.148 119.337 19.924C119.673 19.692 119.841 19.356 119.841 18.916C119.841 18.476 119.673 18.144 119.337 17.92C119.009 17.688 118.537 17.572 117.921 17.572H115.461ZM118.221 24.028C118.901 24.028 119.413 23.916 119.757 23.692C120.101 23.468 120.273 23.116 120.273 22.636C120.273 21.7 119.589 21.232 118.221 21.232H115.461V24.028H118.221Z" fill="#1E376A"/>
<path d="M129.103 18.64V25H128.011V24.04C127.779 24.368 127.471 24.624 127.087 24.808C126.711 24.984 126.299 25.072 125.851 25.072C125.003 25.072 124.335 24.84 123.847 24.376C123.359 23.904 123.115 23.212 123.115 22.3V18.64H124.267V22.168C124.267 22.784 124.415 23.252 124.711 23.572C125.007 23.884 125.431 24.04 125.983 24.04C126.591 24.04 127.071 23.856 127.423 23.488C127.775 23.12 127.951 22.6 127.951 21.928V18.64H129.103Z" fill="#1E376A"/>
<path d="M133.12 25.072C132.6 25.072 132.1 25.004 131.62 24.868C131.14 24.724 130.764 24.544 130.492 24.328L130.972 23.416C131.252 23.616 131.592 23.776 131.992 23.896C132.392 24.016 132.796 24.076 133.204 24.076C134.212 24.076 134.716 23.788 134.716 23.212C134.716 23.02 134.648 22.868 134.512 22.756C134.376 22.644 134.204 22.564 133.996 22.516C133.796 22.46 133.508 22.4 133.132 22.336C132.62 22.256 132.2 22.164 131.872 22.06C131.552 21.956 131.276 21.78 131.044 21.532C130.812 21.284 130.696 20.936 130.696 20.488C130.696 19.912 130.936 19.452 131.416 19.108C131.896 18.756 132.54 18.58 133.348 18.58C133.772 18.58 134.196 18.632 134.62 18.736C135.044 18.84 135.392 18.98 135.664 19.156L135.172 20.068C134.652 19.732 134.04 19.564 133.336 19.564C132.848 19.564 132.476 19.644 132.22 19.804C131.964 19.964 131.836 20.176 131.836 20.44C131.836 20.648 131.908 20.812 132.052 20.932C132.196 21.052 132.372 21.14 132.58 21.196C132.796 21.252 133.096 21.316 133.48 21.388C133.992 21.476 134.404 21.572 134.716 21.676C135.036 21.772 135.308 21.94 135.532 22.18C135.756 22.42 135.868 22.756 135.868 23.188C135.868 23.764 135.62 24.224 135.124 24.568C134.636 24.904 133.968 25.072 133.12 25.072Z" fill="#1E376A"/>
<path d="M137.308 18.64H138.46V25H137.308V18.64ZM137.884 17.416C137.66 17.416 137.472 17.344 137.32 17.2C137.176 17.056 137.104 16.88 137.104 16.672C137.104 16.464 137.176 16.288 137.32 16.144C137.472 15.992 137.66 15.916 137.884 15.916C138.108 15.916 138.292 15.988 138.436 16.132C138.588 16.268 138.664 16.44 138.664 16.648C138.664 16.864 138.588 17.048 138.436 17.2C138.292 17.344 138.108 17.416 137.884 17.416Z" fill="#1E376A"/>
<path d="M144.055 18.58C144.863 18.58 145.503 18.816 145.975 19.288C146.455 19.752 146.695 20.436 146.695 21.34V25H145.543V21.472C145.543 20.856 145.395 20.392 145.099 20.08C144.803 19.768 144.379 19.612 143.827 19.612C143.203 19.612 142.711 19.796 142.351 20.164C141.991 20.524 141.811 21.044 141.811 21.724V25H140.659V18.64H141.763V19.6C141.995 19.272 142.307 19.02 142.699 18.844C143.099 18.668 143.551 18.58 144.055 18.58Z" fill="#1E376A"/>
<path d="M154.61 21.856C154.61 21.944 154.602 22.06 154.586 22.204H149.426C149.498 22.764 149.742 23.216 150.158 23.56C150.582 23.896 151.106 24.064 151.73 24.064C152.49 24.064 153.102 23.808 153.566 23.296L154.202 24.04C153.914 24.376 153.554 24.632 153.122 24.808C152.698 24.984 152.222 25.072 151.694 25.072C151.022 25.072 150.426 24.936 149.906 24.664C149.386 24.384 148.982 23.996 148.694 23.5C148.414 23.004 148.274 22.444 148.274 21.82C148.274 21.204 148.41 20.648 148.682 20.152C148.962 19.656 149.342 19.272 149.822 19C150.31 18.72 150.858 18.58 151.466 18.58C152.074 18.58 152.614 18.72 153.086 19C153.566 19.272 153.938 19.656 154.202 20.152C154.474 20.648 154.61 21.216 154.61 21.856ZM151.466 19.552C150.914 19.552 150.45 19.72 150.074 20.056C149.706 20.392 149.49 20.832 149.426 21.376H153.506C153.442 20.84 153.222 20.404 152.846 20.068C152.478 19.724 152.018 19.552 151.466 19.552Z" fill="#1E376A"/>
<path d="M158.034 25.072C157.514 25.072 157.014 25.004 156.534 24.868C156.054 24.724 155.678 24.544 155.406 24.328L155.886 23.416C156.166 23.616 156.506 23.776 156.906 23.896C157.306 24.016 157.71 24.076 158.118 24.076C159.126 24.076 159.63 23.788 159.63 23.212C159.63 23.02 159.562 22.868 159.426 22.756C159.29 22.644 159.118 22.564 158.91 22.516C158.71 22.46 158.422 22.4 158.046 22.336C157.534 22.256 157.114 22.164 156.786 22.06C156.466 21.956 156.19 21.78 155.958 21.532C155.726 21.284 155.61 20.936 155.61 20.488C155.61 19.912 155.85 19.452 156.33 19.108C156.81 18.756 157.454 18.58 158.262 18.58C158.686 18.58 159.11 18.632 159.534 18.736C159.958 18.84 160.306 18.98 160.578 19.156L160.086 20.068C159.566 19.732 158.954 19.564 158.25 19.564C157.762 19.564 157.39 19.644 157.134 19.804C156.878 19.964 156.75 20.176 156.75 20.44C156.75 20.648 156.822 20.812 156.966 20.932C157.11 21.052 157.286 21.14 157.494 21.196C157.71 21.252 158.01 21.316 158.394 21.388C158.906 21.476 159.318 21.572 159.63 21.676C159.95 21.772 160.222 21.94 160.446 22.18C160.67 22.42 160.782 22.756 160.782 23.188C160.782 23.764 160.534 24.224 160.038 24.568C159.55 24.904 158.882 25.072 158.034 25.072Z" fill="#1E376A"/>
<path d="M164.046 25.072C163.526 25.072 163.026 25.004 162.546 24.868C162.066 24.724 161.69 24.544 161.418 24.328L161.898 23.416C162.178 23.616 162.518 23.776 162.918 23.896C163.318 24.016 163.722 24.076 164.13 24.076C165.138 24.076 165.642 23.788 165.642 23.212C165.642 23.02 165.574 22.868 165.438 22.756C165.302 22.644 165.13 22.564 164.922 22.516C164.722 22.46 164.434 22.4 164.058 22.336C163.546 22.256 163.126 22.164 162.798 22.06C162.478 21.956 162.202 21.78 161.97 21.532C161.738 21.284 161.622 20.936 161.622 20.488C161.622 19.912 161.862 19.452 162.342 19.108C162.822 18.756 163.466 18.58 164.274 18.58C164.698 18.58 165.122 18.632 165.546 18.736C165.97 18.84 166.318 18.98 166.59 19.156L166.098 20.068C165.578 19.732 164.966 19.564 164.262 19.564C163.774 19.564 163.402 19.644 163.146 19.804C162.89 19.964 162.762 20.176 162.762 20.44C162.762 20.648 162.834 20.812 162.978 20.932C163.122 21.052 163.298 21.14 163.506 21.196C163.722 21.252 164.022 21.316 164.406 21.388C164.918 21.476 165.33 21.572 165.642 21.676C165.962 21.772 166.234 21.94 166.458 22.18C166.682 22.42 166.794 22.756 166.794 23.188C166.794 23.764 166.546 24.224 166.05 24.568C165.562 24.904 164.894 25.072 164.046 25.072Z" fill="#1E376A"/>
<path d="M176.976 22.9H172.512L171.588 25H170.352L174.156 16.6H175.344L179.16 25H177.9L176.976 22.9ZM176.556 21.94L174.744 17.824L172.932 21.94H176.556Z" fill="#1E376A"/>
<path d="M182.958 25.072C182.31 25.072 181.73 24.932 181.218 24.652C180.714 24.372 180.318 23.988 180.03 23.5C179.742 23.004 179.598 22.444 179.598 21.82C179.598 21.196 179.742 20.64 180.03 20.152C180.318 19.656 180.714 19.272 181.218 19C181.73 18.72 182.31 18.58 182.958 18.58C183.534 18.58 184.046 18.696 184.494 18.928C184.95 19.16 185.302 19.496 185.55 19.936L184.674 20.5C184.474 20.196 184.226 19.968 183.93 19.816C183.634 19.664 183.306 19.588 182.946 19.588C182.53 19.588 182.154 19.68 181.818 19.864C181.49 20.048 181.23 20.312 181.038 20.656C180.854 20.992 180.762 21.38 180.762 21.82C180.762 22.268 180.854 22.664 181.038 23.008C181.23 23.344 181.49 23.604 181.818 23.788C182.154 23.972 182.53 24.064 182.946 24.064C183.306 24.064 183.634 23.988 183.93 23.836C184.226 23.684 184.474 23.456 184.674 23.152L185.55 23.704C185.302 24.144 184.95 24.484 184.494 24.724C184.046 24.956 183.534 25.072 182.958 25.072Z" fill="#1E376A"/>
<path d="M189.358 18.58C190.238 18.58 190.91 18.796 191.374 19.228C191.846 19.66 192.082 20.304 192.082 21.16V25H190.99V24.16C190.798 24.456 190.522 24.684 190.162 24.844C189.81 24.996 189.39 25.072 188.902 25.072C188.19 25.072 187.618 24.9 187.186 24.556C186.762 24.212 186.55 23.76 186.55 23.2C186.55 22.64 186.754 22.192 187.162 21.856C187.57 21.512 188.218 21.34 189.106 21.34H190.93V21.112C190.93 20.616 190.786 20.236 190.498 19.972C190.21 19.708 189.786 19.576 189.226 19.576C188.85 19.576 188.482 19.64 188.122 19.768C187.762 19.888 187.458 20.052 187.21 20.26L186.73 19.396C187.058 19.132 187.45 18.932 187.906 18.796C188.362 18.652 188.846 18.58 189.358 18.58ZM189.094 24.184C189.534 24.184 189.914 24.088 190.234 23.896C190.554 23.696 190.786 23.416 190.93 23.056V22.168H189.154C188.178 22.168 187.69 22.496 187.69 23.152C187.69 23.472 187.814 23.724 188.062 23.908C188.31 24.092 188.654 24.184 189.094 24.184Z" fill="#1E376A"/>
<path d="M200.249 16.096V25H199.145V23.992C198.889 24.344 198.565 24.612 198.173 24.796C197.781 24.98 197.349 25.072 196.877 25.072C196.261 25.072 195.709 24.936 195.221 24.664C194.733 24.392 194.349 24.012 194.069 23.524C193.797 23.028 193.661 22.46 193.661 21.82C193.661 21.18 193.797 20.616 194.069 20.128C194.349 19.64 194.733 19.26 195.221 18.988C195.709 18.716 196.261 18.58 196.877 18.58C197.333 18.58 197.753 18.668 198.137 18.844C198.521 19.012 198.841 19.264 199.097 19.6V16.096H200.249ZM196.973 24.064C197.373 24.064 197.737 23.972 198.065 23.788C198.393 23.596 198.649 23.332 198.833 22.996C199.017 22.652 199.109 22.26 199.109 21.82C199.109 21.38 199.017 20.992 198.833 20.656C198.649 20.312 198.393 20.048 198.065 19.864C197.737 19.68 197.373 19.588 196.973 19.588C196.565 19.588 196.197 19.68 195.869 19.864C195.549 20.048 195.293 20.312 195.101 20.656C194.917 20.992 194.825 21.38 194.825 21.82C194.825 22.26 194.917 22.652 195.101 22.996C195.293 23.332 195.549 23.596 195.869 23.788C196.197 23.972 196.565 24.064 196.973 24.064Z" fill="#1E376A"/>
<path d="M208.177 21.856C208.177 21.944 208.169 22.06 208.153 22.204H202.993C203.065 22.764 203.309 23.216 203.725 23.56C204.149 23.896 204.673 24.064 205.297 24.064C206.057 24.064 206.669 23.808 207.133 23.296L207.769 24.04C207.481 24.376 207.121 24.632 206.689 24.808C206.265 24.984 205.789 25.072 205.261 25.072C204.589 25.072 203.993 24.936 203.473 24.664C202.953 24.384 202.549 23.996 202.261 23.5C201.981 23.004 201.841 22.444 201.841 21.82C201.841 21.204 201.977 20.648 202.249 20.152C202.529 19.656 202.909 19.272 203.389 19C203.877 18.72 204.425 18.58 205.033 18.58C205.641 18.58 206.181 18.72 206.653 19C207.133 19.272 207.505 19.656 207.769 20.152C208.041 20.648 208.177 21.216 208.177 21.856ZM205.033 19.552C204.481 19.552 204.017 19.72 203.641 20.056C203.273 20.392 203.057 20.832 202.993 21.376H207.073C207.009 20.84 206.789 20.404 206.413 20.068C206.045 19.724 205.585 19.552 205.033 19.552Z" fill="#1E376A"/>
<path d="M217.732 18.58C218.532 18.58 219.164 18.812 219.628 19.276C220.1 19.74 220.336 20.428 220.336 21.34V25H219.184V21.472C219.184 20.856 219.04 20.392 218.752 20.08C218.472 19.768 218.068 19.612 217.54 19.612C216.956 19.612 216.492 19.796 216.148 20.164C215.804 20.524 215.632 21.044 215.632 21.724V25H214.48V21.472C214.48 20.856 214.336 20.392 214.048 20.08C213.768 19.768 213.364 19.612 212.836 19.612C212.252 19.612 211.788 19.796 211.444 20.164C211.1 20.524 210.928 21.044 210.928 21.724V25H209.776V18.64H210.88V19.588C211.112 19.26 211.416 19.012 211.792 18.844C212.168 18.668 212.596 18.58 213.076 18.58C213.572 18.58 214.012 18.68 214.396 18.88C214.78 19.08 215.076 19.372 215.284 19.756C215.524 19.388 215.856 19.1 216.28 18.892C216.712 18.684 217.196 18.58 217.732 18.58Z" fill="#1E376A"/>
<path d="M227.967 18.64L224.883 25.636C224.611 26.284 224.291 26.74 223.923 27.004C223.563 27.268 223.127 27.4 222.615 27.4C222.303 27.4 221.999 27.348 221.703 27.244C221.415 27.148 221.175 27.004 220.983 26.812L221.475 25.948C221.803 26.26 222.183 26.416 222.615 26.416C222.895 26.416 223.127 26.34 223.311 26.188C223.503 26.044 223.675 25.792 223.827 25.432L224.031 24.988L221.223 18.64H222.423L224.643 23.728L226.839 18.64H227.967Z" fill="#1E376A"/>
<path d="M38.7365 21.9044H43.5605L47.7365 11.6804L48.0965 25.0004H53.3165L52.3085 1.02441H46.9085L41.1485 16.2884L35.3885 1.02441H29.9885L28.9805 25.0004H34.2005L34.5605 11.6804L38.7365 21.9044Z" fill="#1E376A"/>
<path d="M74.8133 19.2764V16.9364C74.8133 14.7044 73.2653 12.9764 71.2853 12.5084C73.1933 11.6804 73.9492 10.4564 73.9492 8.72841V6.28041C73.9492 3.04041 72.1133 1.02441 67.1092 1.02441H57.6413V25.0004H67.8652C72.6533 25.0004 74.8133 22.6604 74.8133 19.2764ZM68.5493 9.16041C68.5493 10.1324 67.8293 10.8524 66.3893 10.8524H63.0413V5.38041H66.3893C67.9013 5.38041 68.5493 6.02841 68.5493 7.07241V9.16041ZM69.4132 18.5564C69.4132 20.2844 68.0813 20.6444 66.3893 20.6444H63.0413V15.0644H67.1453C68.5853 15.0644 69.4132 15.7484 69.4132 17.0804V18.5564Z" fill="#1E376A"/>
<path d="M90.7708 1.02441H83.5708L76.2628 25.0004H81.8788L83.1748 20.3204H91.2028L92.4988 25.0004H98.1148L90.7708 1.02441ZM87.1708 5.77641L89.9068 15.8204H84.3988L87.1708 5.77641Z" fill="#1E376A"/>
<path d="M10.7365 21.9044H15.5605L19.7365 11.6804L20.0965 25.0004H25.3165L24.3085 1.02441H18.9085L13.1485 16.2884L7.38847 1.02441H1.98847L0.980469 25.0004H6.20047L6.56047 11.6804L10.7365 21.9044Z" fill="url(#paint0_linear)"/>
<defs>
<linearGradient id="paint0_linear" x1="9.80925" y1="1.84341" x2="13.1587" y2="31.5841" gradientUnits="userSpaceOnUse">
<stop offset="0.01" stop-color="#2BE9A3"/>
<stop offset="0.44" stop-color="#07CDBF"/>
<stop offset="0.53" stop-color="#00C7C5"/>
<stop offset="0.6" stop-color="#09C7CA"/>
<stop offset="0.73" stop-color="#21C9D8"/>
<stop offset="0.89" stop-color="#48CBEE"/>
<stop offset="1" stop-color="#66CCFF"/>
</linearGradient>
</defs>
</svg>
