<svg width="190" height="22" viewBox="0 0 190 22" fill="none" xmlns="http://www.w3.org/2000/svg">
<path d="M93.8895 7.88289L93.8802 3.13659L91.5257 7.09184H91.0976L88.743 3.16451V7.88289H87.8496V1.36836H88.6127L91.3302 5.94714L94.0105 1.36836H94.7736L94.7829 7.88289H93.8895Z" fill="#1E376A"/>
<path d="M98.7203 7.93873C98.2302 7.93873 97.7896 7.83015 97.3988 7.613C97.0079 7.39585 96.7008 7.09804 96.4774 6.71958C96.2603 6.33491 96.1517 5.90061 96.1517 5.41667C96.1517 4.93274 96.2603 4.50154 96.4774 4.12308C96.7008 3.73841 97.0079 3.4406 97.3988 3.22965C97.7896 3.0125 98.2302 2.90393 98.7203 2.90393C99.2104 2.90393 99.6478 3.0125 100.033 3.22965C100.423 3.4406 100.727 3.73841 100.945 4.12308C101.168 4.50154 101.28 4.93274 101.28 5.41667C101.28 5.90061 101.168 6.33491 100.945 6.71958C100.727 7.09804 100.423 7.39585 100.033 7.613C99.6478 7.83015 99.2104 7.93873 98.7203 7.93873ZM98.7203 7.15699C99.0367 7.15699 99.319 7.08564 99.5672 6.94294C99.8216 6.79403 100.02 6.58929 100.163 6.32871C100.305 6.06192 100.377 5.75791 100.377 5.41667C100.377 5.07544 100.305 4.77453 100.163 4.51395C100.02 4.24716 99.8216 4.04242 99.5672 3.89972C99.319 3.75702 99.0367 3.68567 98.7203 3.68567C98.4039 3.68567 98.1185 3.75702 97.8641 3.89972C97.6159 4.04242 97.4174 4.24716 97.2685 4.51395C97.1258 4.77453 97.0544 5.07544 97.0544 5.41667C97.0544 5.75791 97.1258 6.06192 97.2685 6.32871C97.4174 6.58929 97.6159 6.79403 97.8641 6.94294C98.1185 7.08564 98.4039 7.15699 98.7203 7.15699Z" fill="#1E376A"/>
<path d="M105.13 2.90393C105.608 2.90393 106.036 3.0094 106.415 3.22035C106.793 3.43129 107.088 3.726 107.299 4.10446C107.516 4.48293 107.624 4.92033 107.624 5.41667C107.624 5.91302 107.516 6.35353 107.299 6.73819C107.088 7.11666 106.793 7.41136 106.415 7.62231C106.036 7.83325 105.608 7.93873 105.13 7.93873C104.764 7.93873 104.429 7.86738 104.125 7.72468C103.821 7.58198 103.57 7.37414 103.371 7.10115V7.88289H102.515V0.977488H103.409V3.69498C103.607 3.4344 103.855 3.23896 104.153 3.10867C104.451 2.97217 104.777 2.90393 105.13 2.90393ZM105.056 7.15699C105.372 7.15699 105.655 7.08564 105.903 6.94294C106.157 6.79403 106.356 6.58929 106.498 6.32871C106.647 6.06192 106.722 5.75791 106.722 5.41667C106.722 5.07544 106.647 4.77453 106.498 4.51395C106.356 4.24716 106.157 4.04242 105.903 3.89972C105.655 3.75702 105.372 3.68567 105.056 3.68567C104.746 3.68567 104.463 3.75702 104.209 3.89972C103.955 4.04242 103.756 4.24716 103.613 4.51395C103.471 4.77453 103.399 5.07544 103.399 5.41667C103.399 5.75791 103.471 6.06192 103.613 6.32871C103.756 6.58929 103.955 6.79403 104.209 6.94294C104.463 7.08564 104.746 7.15699 105.056 7.15699Z" fill="#1E376A"/>
<path d="M108.859 2.95046H109.752V7.88289H108.859V2.95046ZM109.306 2.0012C109.132 2.0012 108.986 1.94536 108.868 1.83368C108.756 1.72201 108.701 1.58551 108.701 1.4242C108.701 1.26289 108.756 1.12639 108.868 1.01471C108.986 0.896832 109.132 0.837891 109.306 0.837891C109.479 0.837891 109.622 0.893729 109.734 1.00541C109.852 1.11088 109.91 1.24427 109.91 1.40559C109.91 1.5731 109.852 1.7158 109.734 1.83368C109.622 1.94536 109.479 2.0012 109.306 2.0012Z" fill="#1E376A"/>
<path d="M111.458 0.977488H112.352V7.88289H111.458V0.977488Z" fill="#1E376A"/>
<path d="M118.515 5.44459C118.515 5.51284 118.509 5.6028 118.497 5.71448H114.495C114.551 6.14878 114.74 6.49933 115.062 6.76611C115.391 7.02669 115.798 7.15699 116.282 7.15699C116.871 7.15699 117.346 6.95845 117.706 6.56137L118.199 7.13837C117.975 7.39895 117.696 7.59749 117.361 7.73399C117.032 7.87048 116.663 7.93873 116.254 7.93873C115.733 7.93873 115.27 7.83325 114.867 7.62231C114.464 7.40516 114.15 7.10425 113.927 6.71958C113.71 6.33491 113.601 5.90061 113.601 5.41667C113.601 4.93894 113.707 4.50774 113.918 4.12308C114.135 3.73841 114.43 3.4406 114.802 3.22965C115.18 3.0125 115.605 2.90393 116.077 2.90393C116.548 2.90393 116.967 3.0125 117.333 3.22965C117.706 3.4406 117.994 3.73841 118.199 4.12308C118.41 4.50774 118.515 4.94825 118.515 5.44459ZM116.077 3.65775C115.649 3.65775 115.289 3.78804 114.997 4.04862C114.712 4.3092 114.544 4.65044 114.495 5.07234H117.659C117.609 4.65665 117.439 4.31851 117.147 4.05793C116.862 3.79114 116.505 3.65775 116.077 3.65775Z" fill="#1E376A"/>
<path d="M128.425 7.88289L128.416 3.13659L126.061 7.09184H125.633L123.279 3.16451V7.88289H122.385V1.36836H123.148L125.866 5.94714L128.546 1.36836H129.309L129.319 7.88289H128.425Z" fill="#1E376A"/>
<path d="M132.94 2.90393C133.622 2.90393 134.143 3.07144 134.503 3.40648C134.869 3.74151 135.052 4.24096 135.052 4.90482V7.88289H134.205V7.23144C134.056 7.461 133.842 7.63782 133.563 7.76191C133.29 7.87979 132.964 7.93873 132.586 7.93873C132.034 7.93873 131.59 7.80534 131.255 7.53855C130.926 7.27176 130.762 6.92122 130.762 6.48692C130.762 6.05262 130.92 5.70518 131.237 5.44459C131.553 5.17781 132.055 5.04442 132.744 5.04442H134.159V4.86759C134.159 4.48293 134.047 4.18822 133.824 3.98348C133.6 3.77874 133.272 3.67636 132.837 3.67636C132.546 3.67636 132.26 3.726 131.981 3.82527C131.702 3.91833 131.466 4.04552 131.274 4.20683L130.901 3.53677C131.156 3.33203 131.46 3.17692 131.814 3.07144C132.167 2.95977 132.543 2.90393 132.94 2.90393ZM132.735 7.25005C133.076 7.25005 133.371 7.1756 133.619 7.02669C133.867 6.87159 134.047 6.65444 134.159 6.37524V5.68656H132.781C132.024 5.68656 131.646 5.94094 131.646 6.44969C131.646 6.69787 131.742 6.8933 131.935 7.036C132.127 7.1787 132.394 7.25005 132.735 7.25005Z" fill="#1E376A"/>
<path d="M137.562 3.77874C137.717 3.49334 137.946 3.27619 138.25 3.12728C138.554 2.97838 138.924 2.90393 139.358 2.90393V3.76943C139.308 3.76322 139.24 3.76012 139.153 3.76012C138.669 3.76012 138.288 3.90592 138.008 4.19753C137.735 4.48293 137.599 4.89241 137.599 5.42598V7.88289H136.706V2.95046H137.562V3.77874Z" fill="#1E376A"/>
<path d="M142.376 5.58419L141.352 6.53345V7.88289H140.459V0.977488H141.352V5.40737L144.042 2.95046H145.122L143.046 4.98858L145.326 7.88289H144.228L142.376 5.58419Z" fill="#1E376A"/>
<path d="M150.443 5.44459C150.443 5.51284 150.436 5.6028 150.424 5.71448H146.422C146.478 6.14878 146.667 6.49933 146.99 6.76611C147.319 7.02669 147.725 7.15699 148.209 7.15699C148.798 7.15699 149.273 6.95845 149.633 6.56137L150.126 7.13837C149.903 7.39895 149.624 7.59749 149.289 7.73399C148.96 7.87048 148.591 7.93873 148.181 7.93873C147.66 7.93873 147.198 7.83325 146.794 7.62231C146.391 7.40516 146.078 7.10425 145.854 6.71958C145.637 6.33491 145.529 5.90061 145.529 5.41667C145.529 4.93894 145.634 4.50774 145.845 4.12308C146.062 3.73841 146.357 3.4406 146.729 3.22965C147.108 3.0125 147.533 2.90393 148.004 2.90393C148.476 2.90393 148.895 3.0125 149.261 3.22965C149.633 3.4406 149.921 3.73841 150.126 4.12308C150.337 4.50774 150.443 4.94825 150.443 5.44459ZM148.004 3.65775C147.576 3.65775 147.216 3.78804 146.925 4.04862C146.639 4.3092 146.472 4.65044 146.422 5.07234H149.586C149.537 4.65665 149.366 4.31851 149.074 4.05793C148.789 3.79114 148.432 3.65775 148.004 3.65775Z" fill="#1E376A"/>
<path d="M154.456 7.59439C154.326 7.70607 154.165 7.79293 153.973 7.85497C153.78 7.91081 153.582 7.93873 153.377 7.93873C152.881 7.93873 152.496 7.80534 152.223 7.53855C151.95 7.27176 151.813 6.8902 151.813 6.39385V3.68567H150.976V2.95046H151.813V1.87091H152.707V2.95046H154.121V3.68567H152.707V6.35663C152.707 6.62341 152.772 6.82816 152.902 6.97086C153.039 7.11356 153.231 7.18491 153.479 7.18491C153.752 7.18491 153.985 7.10735 154.177 6.95224L154.456 7.59439Z" fill="#1E376A"/>
<path d="M155.537 2.95046H156.43V7.88289H155.537V2.95046ZM155.983 2.0012C155.81 2.0012 155.664 1.94536 155.546 1.83368C155.434 1.72201 155.378 1.58551 155.378 1.4242C155.378 1.26289 155.434 1.12639 155.546 1.01471C155.664 0.896832 155.81 0.837891 155.983 0.837891C156.157 0.837891 156.3 0.893729 156.411 1.00541C156.529 1.11088 156.588 1.24427 156.588 1.40559C156.588 1.5731 156.529 1.7158 156.411 1.83368C156.3 1.94536 156.157 2.0012 155.983 2.0012Z" fill="#1E376A"/>
<path d="M160.77 2.90393C161.396 2.90393 161.893 3.08695 162.259 3.45301C162.631 3.81286 162.817 4.34333 162.817 5.04442V7.88289H161.924V5.14679C161.924 4.66905 161.809 4.3092 161.579 4.06724C161.35 3.82527 161.021 3.70428 160.593 3.70428C160.109 3.70428 159.727 3.84698 159.448 4.13238C159.169 4.41158 159.029 4.81486 159.029 5.34222V7.88289H158.136V2.95046H158.992V3.69498C159.172 3.4406 159.414 3.24516 159.718 3.10867C160.028 2.97217 160.379 2.90393 160.77 2.90393Z" fill="#1E376A"/>
<path d="M169.216 2.95046V7.21282C169.216 8.07522 169.002 8.71117 168.574 9.12065C168.146 9.53634 167.507 9.74418 166.657 9.74418C166.191 9.74418 165.748 9.67904 165.326 9.54875C164.904 9.42466 164.563 9.24474 164.302 9.00897L164.73 8.32029C164.96 8.51883 165.242 8.67394 165.577 8.78562C165.919 8.9035 166.269 8.96244 166.629 8.96244C167.206 8.96244 167.631 8.82595 167.904 8.55296C168.183 8.27997 168.323 7.86428 168.323 7.30589V6.91502C168.112 7.16939 167.851 7.36173 167.541 7.49202C167.237 7.6161 166.905 7.67815 166.545 7.67815C166.074 7.67815 165.646 7.57888 165.261 7.38034C164.882 7.1756 164.585 6.8933 164.367 6.53345C164.15 6.1674 164.042 5.75171 164.042 5.28638C164.042 4.82106 164.15 4.40847 164.367 4.04862C164.585 3.68257 164.882 3.40027 165.261 3.20173C165.646 3.0032 166.074 2.90393 166.545 2.90393C166.917 2.90393 167.262 2.97217 167.578 3.10867C167.901 3.24516 168.164 3.4468 168.369 3.71359V2.95046H169.216ZM166.648 6.8964C166.97 6.8964 167.259 6.82816 167.513 6.69166C167.774 6.55517 167.975 6.36594 168.118 6.12397C168.267 5.87579 168.341 5.5966 168.341 5.28638C168.341 4.80865 168.183 4.42398 167.867 4.13238C167.55 3.83457 167.144 3.68567 166.648 3.68567C166.145 3.68567 165.735 3.83457 165.419 4.13238C165.103 4.42398 164.944 4.80865 164.944 5.28638C164.944 5.5966 165.016 5.87579 165.158 6.12397C165.307 6.36594 165.509 6.55517 165.763 6.69166C166.024 6.82816 166.319 6.8964 166.648 6.8964Z" fill="#1E376A"/>
<path d="M175.219 2.90393C175.901 2.90393 176.422 3.07144 176.782 3.40648C177.148 3.74151 177.331 4.24096 177.331 4.90482V7.88289H176.484V7.23144C176.335 7.461 176.121 7.63782 175.842 7.76191C175.569 7.87979 175.243 7.93873 174.865 7.93873C174.313 7.93873 173.869 7.80534 173.534 7.53855C173.205 7.27176 173.041 6.92122 173.041 6.48692C173.041 6.05262 173.199 5.70518 173.516 5.44459C173.832 5.17781 174.335 5.04442 175.023 5.04442H176.438V4.86759C176.438 4.48293 176.326 4.18822 176.103 3.98348C175.879 3.77874 175.551 3.67636 175.116 3.67636C174.825 3.67636 174.539 3.726 174.26 3.82527C173.981 3.91833 173.745 4.04552 173.553 4.20683L173.181 3.53677C173.435 3.33203 173.739 3.17692 174.093 3.07144C174.446 2.95977 174.822 2.90393 175.219 2.90393ZM175.014 7.25005C175.355 7.25005 175.65 7.1756 175.898 7.02669C176.146 6.87159 176.326 6.65444 176.438 6.37524V5.68656H175.06C174.303 5.68656 173.925 5.94094 173.925 6.44969C173.925 6.69787 174.021 6.8933 174.214 7.036C174.406 7.1787 174.673 7.25005 175.014 7.25005Z" fill="#1E376A"/>
<path d="M181.618 2.90393C182.245 2.90393 182.741 3.08695 183.107 3.45301C183.48 3.81286 183.666 4.34333 183.666 5.04442V7.88289H182.772V5.14679C182.772 4.66905 182.657 4.3092 182.428 4.06724C182.198 3.82527 181.87 3.70428 181.441 3.70428C180.958 3.70428 180.576 3.84698 180.297 4.13238C180.018 4.41158 179.878 4.81486 179.878 5.34222V7.88289H178.985V2.95046H179.841V3.69498C180.021 3.4406 180.263 3.24516 180.567 3.10867C180.877 2.97217 181.227 2.90393 181.618 2.90393Z" fill="#1E376A"/>
<path d="M190 0.977488V7.88289H189.143V7.10115C188.945 7.37414 188.694 7.58198 188.39 7.72468C188.086 7.86738 187.751 7.93873 187.385 7.93873C186.907 7.93873 186.479 7.83325 186.1 7.62231C185.722 7.41136 185.424 7.11666 185.207 6.73819C184.996 6.35353 184.89 5.91302 184.89 5.41667C184.89 4.92033 184.996 4.48293 185.207 4.10446C185.424 3.726 185.722 3.43129 186.1 3.22035C186.479 3.0094 186.907 2.90393 187.385 2.90393C187.738 2.90393 188.064 2.97217 188.362 3.10867C188.66 3.23896 188.908 3.4344 189.106 3.69498V0.977488H190ZM187.459 7.15699C187.769 7.15699 188.051 7.08564 188.306 6.94294C188.56 6.79403 188.759 6.58929 188.901 6.32871C189.044 6.06192 189.116 5.75791 189.116 5.41667C189.116 5.07544 189.044 4.77453 188.901 4.51395C188.759 4.24716 188.56 4.04242 188.306 3.89972C188.051 3.75702 187.769 3.68567 187.459 3.68567C187.143 3.68567 186.857 3.75702 186.603 3.89972C186.355 4.04242 186.156 4.24716 186.007 4.51395C185.864 4.77453 185.793 5.07544 185.793 5.41667C185.793 5.75791 185.864 6.06192 186.007 6.32871C186.156 6.58929 186.355 6.79403 186.603 6.94294C186.857 7.08564 187.143 7.15699 187.459 7.15699Z" fill="#1E376A"/>
<path d="M92.233 16.1377C92.6114 16.2432 92.9092 16.4355 93.1264 16.7147C93.3435 16.9877 93.4521 17.3352 93.4521 17.7571C93.4521 18.3216 93.2381 18.756 92.81 19.06C92.3881 19.364 91.7707 19.516 90.958 19.516H87.8496V13.0014H90.7718C91.5164 13.0014 92.0903 13.1504 92.4935 13.4482C92.903 13.746 93.1078 14.1586 93.1078 14.6859C93.1078 15.0272 93.0271 15.3219 92.8658 15.57C92.7107 15.8182 92.4997 16.0074 92.233 16.1377ZM88.7803 13.7553V15.8399H90.6881C91.1658 15.8399 91.5319 15.7531 91.7862 15.5793C92.0468 15.3994 92.1771 15.1388 92.1771 14.7976C92.1771 14.4564 92.0468 14.1989 91.7862 14.0252C91.5319 13.8452 91.1658 13.7553 90.6881 13.7553H88.7803ZM90.9207 18.7622C91.4481 18.7622 91.8452 18.6753 92.112 18.5016C92.3788 18.3279 92.5122 18.0549 92.5122 17.6826C92.5122 16.9567 91.9817 16.5937 90.9207 16.5937H88.7803V18.7622H90.9207Z" fill="#1E376A"/>
<path d="M99.3602 14.5835V19.516H98.5133V18.7715C98.3334 19.0258 98.0945 19.2244 97.7967 19.3671C97.5051 19.5036 97.1856 19.5718 96.8381 19.5718C96.1805 19.5718 95.6624 19.3919 95.284 19.032C94.9055 18.666 94.7163 18.1293 94.7163 17.422V14.5835H95.6097V17.3197C95.6097 17.7974 95.7245 18.1603 95.954 18.4085C96.1836 18.6505 96.5124 18.7715 96.9405 18.7715C97.412 18.7715 97.7843 18.6288 98.0573 18.3434C98.3303 18.058 98.4668 17.6547 98.4668 17.1335V14.5835H99.3602Z" fill="#1E376A"/>
<path d="M102.476 19.5718C102.072 19.5718 101.685 19.5191 101.312 19.4136C100.94 19.3019 100.648 19.1623 100.437 18.9948L100.81 18.2875C101.027 18.4426 101.291 18.5667 101.601 18.6598C101.911 18.7528 102.224 18.7994 102.541 18.7994C103.322 18.7994 103.713 18.576 103.713 18.1293C103.713 17.9804 103.661 17.8625 103.555 17.7757C103.45 17.6888 103.316 17.6268 103.155 17.5895C103 17.5461 102.777 17.4996 102.485 17.4499C102.088 17.3879 101.762 17.3165 101.508 17.2359C101.26 17.1552 101.046 17.0187 100.866 16.8264C100.686 16.6341 100.596 16.3642 100.596 16.0167C100.596 15.57 100.782 15.2133 101.154 14.9465C101.526 14.6735 102.026 14.537 102.652 14.537C102.981 14.537 103.31 14.5773 103.639 14.658C103.968 14.7387 104.238 14.8472 104.449 14.9837L104.067 15.691C103.664 15.4304 103.189 15.3001 102.643 15.3001C102.265 15.3001 101.976 15.3622 101.778 15.4863C101.579 15.6104 101.48 15.7748 101.48 15.9795C101.48 16.1408 101.536 16.268 101.647 16.3611C101.759 16.4541 101.895 16.5224 102.057 16.5658C102.224 16.6093 102.457 16.6589 102.755 16.7147C103.152 16.783 103.471 16.8574 103.713 16.9381C103.962 17.0125 104.172 17.1428 104.346 17.329C104.52 17.5151 104.607 17.7757 104.607 18.1107C104.607 18.5574 104.414 18.9142 104.03 19.1809C103.651 19.4415 103.133 19.5718 102.476 19.5718Z" fill="#1E376A"/>
<path d="M105.723 14.5835H106.617V19.516H105.723V14.5835ZM106.17 13.6343C105.996 13.6343 105.851 13.5784 105.733 13.4668C105.621 13.3551 105.565 13.2186 105.565 13.0573C105.565 12.896 105.621 12.7595 105.733 12.6478C105.851 12.5299 105.996 12.471 106.17 12.471C106.344 12.471 106.486 12.5268 106.598 12.6385C106.716 12.744 106.775 12.8774 106.775 13.0387C106.775 13.2062 106.716 13.3489 106.598 13.4668C106.486 13.5784 106.344 13.6343 106.17 13.6343Z" fill="#1E376A"/>
<path d="M110.956 14.537C111.583 14.537 112.079 14.72 112.445 15.0861C112.818 15.4459 113.004 15.9764 113.004 16.6775V19.516H112.11V16.7799C112.11 16.3021 111.996 15.9423 111.766 15.7003C111.536 15.4584 111.208 15.3374 110.78 15.3374C110.296 15.3374 109.914 15.4801 109.635 15.7655C109.356 16.0447 109.216 16.4479 109.216 16.9753V19.516H108.323V14.5835H109.179V15.3281C109.359 15.0737 109.601 14.8783 109.905 14.7418C110.215 14.6053 110.565 14.537 110.956 14.537Z" fill="#1E376A"/>
<path d="M119.142 17.0777C119.142 17.1459 119.136 17.2359 119.124 17.3476H115.122C115.178 17.7819 115.367 18.1324 115.69 18.3992C116.018 18.6598 116.425 18.7901 116.909 18.7901C117.498 18.7901 117.973 18.5915 118.333 18.1945L118.826 18.7715C118.602 19.032 118.323 19.2306 117.988 19.3671C117.659 19.5036 117.29 19.5718 116.881 19.5718C116.36 19.5718 115.897 19.4663 115.494 19.2554C115.091 19.0382 114.778 18.7373 114.554 18.3527C114.337 17.968 114.228 17.5337 114.228 17.0498C114.228 16.572 114.334 16.1408 114.545 15.7562C114.762 15.3715 115.057 15.0737 115.429 14.8627C115.807 14.6456 116.232 14.537 116.704 14.537C117.175 14.537 117.594 14.6456 117.96 14.8627C118.333 15.0737 118.621 15.3715 118.826 15.7562C119.037 16.1408 119.142 16.5813 119.142 17.0777ZM116.704 15.2908C116.276 15.2908 115.916 15.4211 115.624 15.6817C115.339 15.9423 115.171 16.2835 115.122 16.7054H118.286C118.236 16.2897 118.066 15.9516 117.774 15.691C117.489 15.4242 117.132 15.2908 116.704 15.2908Z" fill="#1E376A"/>
<path d="M121.797 19.5718C121.394 19.5718 121.006 19.5191 120.634 19.4136C120.262 19.3019 119.97 19.1623 119.759 18.9948L120.132 18.2875C120.349 18.4426 120.612 18.5667 120.923 18.6598C121.233 18.7528 121.546 18.7994 121.863 18.7994C122.644 18.7994 123.035 18.576 123.035 18.1293C123.035 17.9804 122.982 17.8625 122.877 17.7757C122.772 17.6888 122.638 17.6268 122.477 17.5895C122.322 17.5461 122.098 17.4996 121.807 17.4499C121.41 17.3879 121.084 17.3165 120.83 17.2359C120.581 17.1552 120.367 17.0187 120.187 16.8264C120.007 16.6341 119.918 16.3642 119.918 16.0167C119.918 15.57 120.104 15.2133 120.476 14.9465C120.848 14.6735 121.348 14.537 121.974 14.537C122.303 14.537 122.632 14.5773 122.961 14.658C123.29 14.7387 123.559 14.8472 123.77 14.9837L123.389 15.691C122.986 15.4304 122.511 15.3001 121.965 15.3001C121.586 15.3001 121.298 15.3622 121.099 15.4863C120.901 15.6104 120.802 15.7748 120.802 15.9795C120.802 16.1408 120.857 16.268 120.969 16.3611C121.081 16.4541 121.217 16.5224 121.379 16.5658C121.546 16.6093 121.779 16.6589 122.077 16.7147C122.474 16.783 122.793 16.8574 123.035 16.9381C123.283 17.0125 123.494 17.1428 123.668 17.329C123.842 17.5151 123.929 17.7757 123.929 18.1107C123.929 18.5574 123.736 18.9142 123.352 19.1809C122.973 19.4415 122.455 19.5718 121.797 19.5718Z" fill="#1E376A"/>
<path d="M126.46 19.5718C126.056 19.5718 125.669 19.5191 125.296 19.4136C124.924 19.3019 124.633 19.1623 124.422 18.9948L124.794 18.2875C125.011 18.4426 125.275 18.5667 125.585 18.6598C125.895 18.7528 126.208 18.7994 126.525 18.7994C127.307 18.7994 127.698 18.576 127.698 18.1293C127.698 17.9804 127.645 17.8625 127.539 17.7757C127.434 17.6888 127.3 17.6268 127.139 17.5895C126.984 17.5461 126.761 17.4996 126.469 17.4499C126.072 17.3879 125.746 17.3165 125.492 17.2359C125.244 17.1552 125.03 17.0187 124.85 16.8264C124.67 16.6341 124.58 16.3642 124.58 16.0167C124.58 15.57 124.766 15.2133 125.138 14.9465C125.511 14.6735 126.01 14.537 126.637 14.537C126.965 14.537 127.294 14.5773 127.623 14.658C127.952 14.7387 128.222 14.8472 128.433 14.9837L128.051 15.691C127.648 15.4304 127.173 15.3001 126.627 15.3001C126.249 15.3001 125.96 15.3622 125.762 15.4863C125.563 15.6104 125.464 15.7748 125.464 15.9795C125.464 16.1408 125.52 16.268 125.631 16.3611C125.743 16.4541 125.88 16.5224 126.041 16.5658C126.208 16.6093 126.441 16.6589 126.739 16.7147C127.136 16.783 127.456 16.8574 127.698 16.9381C127.946 17.0125 128.157 17.1428 128.33 17.329C128.504 17.5151 128.591 17.7757 128.591 18.1107C128.591 18.5574 128.399 18.9142 128.014 19.1809C127.635 19.4415 127.117 19.5718 126.46 19.5718Z" fill="#1E376A"/>
<path d="M136.488 17.8873H133.026L132.309 19.516H131.351L134.301 13.0014H135.222L138.182 19.516H137.204L136.488 17.8873ZM136.162 17.1428L134.757 13.9507L133.351 17.1428H136.162Z" fill="#1E376A"/>
<path d="M141.127 19.5718C140.625 19.5718 140.175 19.4632 139.778 19.2461C139.387 19.0289 139.08 18.7311 138.857 18.3527C138.633 17.968 138.522 17.5337 138.522 17.0498C138.522 16.5658 138.633 16.1346 138.857 15.7562C139.08 15.3715 139.387 15.0737 139.778 14.8627C140.175 14.6456 140.625 14.537 141.127 14.537C141.574 14.537 141.971 14.627 142.319 14.8069C142.672 14.9868 142.945 15.2474 143.138 15.5886L142.458 16.0261C142.303 15.7903 142.111 15.6135 141.881 15.4956C141.652 15.3777 141.397 15.3188 141.118 15.3188C140.795 15.3188 140.504 15.3901 140.243 15.5328C139.989 15.6755 139.787 15.8802 139.638 16.147C139.496 16.4076 139.424 16.7085 139.424 17.0498C139.424 17.3972 139.496 17.7043 139.638 17.9711C139.787 18.2317 139.989 18.4333 140.243 18.576C140.504 18.7187 140.795 18.7901 141.118 18.7901C141.397 18.7901 141.652 18.7311 141.881 18.6133C142.111 18.4954 142.303 18.3185 142.458 18.0828L143.138 18.5109C142.945 18.8521 142.672 19.1158 142.319 19.3019C141.971 19.4819 141.574 19.5718 141.127 19.5718Z" fill="#1E376A"/>
<path d="M146.09 14.537C146.773 14.537 147.294 14.7045 147.654 15.0396C148.02 15.3746 148.203 15.874 148.203 16.5379V19.516H147.356V18.8645C147.207 19.0941 146.993 19.2709 146.714 19.395C146.441 19.5129 146.115 19.5718 145.737 19.5718C145.185 19.5718 144.741 19.4384 144.406 19.1716C144.077 18.9049 143.913 18.5543 143.913 18.12C143.913 17.6857 144.071 17.3383 144.387 17.0777C144.704 16.8109 145.206 16.6775 145.895 16.6775H147.31V16.5007C147.31 16.116 147.198 15.8213 146.975 15.6166C146.751 15.4118 146.422 15.3095 145.988 15.3095C145.696 15.3095 145.411 15.3591 145.132 15.4584C144.853 15.5514 144.617 15.6786 144.425 15.8399L144.052 15.1699C144.307 14.9651 144.611 14.81 144.964 14.7045C145.318 14.5929 145.693 14.537 146.09 14.537ZM145.886 18.8831C146.227 18.8831 146.522 18.8087 146.77 18.6598C147.018 18.5047 147.198 18.2875 147.31 18.0083V17.3197H145.932C145.175 17.3197 144.797 17.574 144.797 18.0828C144.797 18.331 144.893 18.5264 145.085 18.6691C145.278 18.8118 145.544 18.8831 145.886 18.8831Z" fill="#1E376A"/>
<path d="M154.537 12.6106V19.516H153.681V18.7342C153.482 19.0072 153.231 19.2151 152.927 19.3578C152.623 19.5005 152.288 19.5718 151.922 19.5718C151.444 19.5718 151.016 19.4663 150.637 19.2554C150.259 19.0445 149.961 18.7497 149.744 18.3713C149.533 17.9866 149.428 17.5461 149.428 17.0498C149.428 16.5534 149.533 16.116 149.744 15.7376C149.961 15.3591 150.259 15.0644 150.637 14.8534C151.016 14.6425 151.444 14.537 151.922 14.537C152.275 14.537 152.601 14.6053 152.899 14.7418C153.197 14.872 153.445 15.0675 153.643 15.3281V12.6106H154.537ZM151.996 18.7901C152.306 18.7901 152.589 18.7187 152.843 18.576C153.097 18.4271 153.296 18.2224 153.439 17.9618C153.581 17.695 153.653 17.391 153.653 17.0498C153.653 16.7085 153.581 16.4076 153.439 16.147C153.296 15.8802 153.097 15.6755 152.843 15.5328C152.589 15.3901 152.306 15.3188 151.996 15.3188C151.68 15.3188 151.394 15.3901 151.14 15.5328C150.892 15.6755 150.693 15.8802 150.544 16.147C150.402 16.4076 150.33 16.7085 150.33 17.0498C150.33 17.391 150.402 17.695 150.544 17.9618C150.693 18.2224 150.892 18.4271 151.14 18.576C151.394 18.7187 151.68 18.7901 151.996 18.7901Z" fill="#1E376A"/>
<path d="M160.685 17.0777C160.685 17.1459 160.679 17.2359 160.667 17.3476H156.665C156.721 17.7819 156.91 18.1324 157.232 18.3992C157.561 18.6598 157.968 18.7901 158.452 18.7901C159.041 18.7901 159.516 18.5915 159.875 18.1945L160.369 18.7715C160.145 19.032 159.866 19.2306 159.531 19.3671C159.202 19.5036 158.833 19.5718 158.424 19.5718C157.902 19.5718 157.44 19.4663 157.037 19.2554C156.634 19.0382 156.32 18.7373 156.097 18.3527C155.88 17.968 155.771 17.5337 155.771 17.0498C155.771 16.572 155.877 16.1408 156.088 15.7562C156.305 15.3715 156.6 15.0737 156.972 14.8627C157.35 14.6456 157.775 14.537 158.247 14.537C158.718 14.537 159.137 14.6456 159.503 14.8627C159.875 15.0737 160.164 15.3715 160.369 15.7562C160.58 16.1408 160.685 16.5813 160.685 17.0777ZM158.247 15.2908C157.819 15.2908 157.459 15.4211 157.167 15.6817C156.882 15.9423 156.714 16.2835 156.665 16.7054H159.829C159.779 16.2897 159.609 15.9516 159.317 15.691C159.032 15.4242 158.675 15.2908 158.247 15.2908Z" fill="#1E376A"/>
<path d="M168.096 14.537C168.716 14.537 169.206 14.7169 169.566 15.0768C169.932 15.4366 170.115 15.9702 170.115 16.6775V19.516H169.222V16.7799C169.222 16.3021 169.11 15.9423 168.887 15.7003C168.67 15.4584 168.356 15.3374 167.947 15.3374C167.494 15.3374 167.134 15.4801 166.867 15.7655C166.601 16.0447 166.467 16.4479 166.467 16.9753V19.516H165.574V16.7799C165.574 16.3021 165.462 15.9423 165.239 15.7003C165.022 15.4584 164.708 15.3374 164.299 15.3374C163.846 15.3374 163.486 15.4801 163.219 15.7655C162.953 16.0447 162.819 16.4479 162.819 16.9753V19.516H161.926V14.5835H162.782V15.3188C162.962 15.0644 163.198 14.872 163.489 14.7418C163.781 14.6053 164.113 14.537 164.485 14.537C164.87 14.537 165.211 14.6146 165.509 14.7697C165.807 14.9248 166.036 15.1512 166.197 15.4491C166.384 15.1637 166.641 14.9403 166.97 14.779C167.305 14.6177 167.68 14.537 168.096 14.537Z" fill="#1E376A"/>
<path d="M176.033 14.5835L173.641 20.0092C173.43 20.5118 173.182 20.8654 172.897 21.0702C172.618 21.2749 172.28 21.3773 171.882 21.3773C171.641 21.3773 171.405 21.3369 171.175 21.2563C170.952 21.1818 170.766 21.0702 170.617 20.9213L170.998 20.2512C171.253 20.4932 171.547 20.6141 171.882 20.6141C172.1 20.6141 172.28 20.5552 172.422 20.4373C172.571 20.3256 172.705 20.1302 172.822 19.851L172.981 19.5067L170.803 14.5835H171.734L173.455 18.5295L175.158 14.5835H176.033Z" fill="#1E376A"/>
<path d="M29.2751 17.1142H33.0163L36.255 9.18505L36.5342 19.5152H40.5825L39.8008 0.920898H35.6129L31.1457 12.7587L26.6786 0.920898H22.4907L21.709 19.5152H25.7573L26.0365 9.18505L29.2751 17.1142Z" fill="#1E376A"/>
<path d="M57.2541 15.076V13.2613C57.2541 11.5303 56.0536 10.1901 54.518 9.82719C55.9977 9.18505 56.584 8.23578 56.584 6.89565V4.99713C56.584 2.48439 55.1601 0.920898 51.2793 0.920898H43.9365V19.5152H51.8657C55.5789 19.5152 57.2541 17.7005 57.2541 15.076ZM52.3961 7.23069C52.3961 7.98451 51.8377 8.5429 50.721 8.5429H48.1245V4.29915H50.721C51.8936 4.29915 52.3961 4.8017 52.3961 5.61136V7.23069ZM53.0662 14.5177C53.0662 15.8578 52.0332 16.137 50.721 16.137H48.1245V11.8095H51.3073C52.424 11.8095 53.0662 12.3399 53.0662 13.373V14.5177Z" fill="#1E376A"/>
<path d="M69.6298 0.920898H64.0459L58.3783 19.5152H62.7337L63.7388 15.8857H69.9649L70.97 19.5152H75.3254L69.6298 0.920898ZM66.8379 4.60626L68.9598 12.3958H64.6881L66.8379 4.60626Z" fill="#1E376A"/>
<path d="M7.56616 17.1142H11.3074L14.546 9.18505L14.8252 19.5152H18.8735L18.0918 0.920898H13.9039L9.43676 12.7587L4.96966 0.920898H0.781744L0 19.5152H4.04832L4.32751 9.18505L7.56616 17.1142Z" fill="url(#paint0_linear)"/>
<defs>
<linearGradient id="paint0_linear" x1="6.84706" y1="1.55606" x2="9.44468" y2="24.6211" gradientUnits="userSpaceOnUse">
<stop offset="0.01" stop-color="#2BE9A3"/>
<stop offset="0.44" stop-color="#07CDBF"/>
<stop offset="0.53" stop-color="#00C7C5"/>
<stop offset="0.6" stop-color="#09C7CA"/>
<stop offset="0.73" stop-color="#21C9D8"/>
<stop offset="0.89" stop-color="#48CBEE"/>
<stop offset="1" stop-color="#66CCFF"/>
</linearGradient>
</defs>
</svg>
